/* XPM */
static char *_lil__1_1741120757[] = {
/* columns rows colors chars-per-pixel */
"64 64 237 2 ",
"   c #A79F71",
".  c #A8A072",
"X  c #A8A173",
"o  c #A9A173",
"O  c #A9A373",
"+  c #A9A274",
"@  c #AAA274",
"#  c #ABA374",
"$  c #AAA375",
"%  c #ABA375",
"&  c #A9A276",
"*  c #AAA377",
"=  c #AAA474",
"-  c #ABA575",
";  c #ABA476",
":  c #ADA576",
">  c #ACA676",
",  c #ADA777",
"<  c #ADA678",
"1  c #AFA778",
"2  c #AEA779",
"3  c #AEA878",
"4  c #ADA97A",
"5  c #AFA87A",
"6  c #BEB685",
"7  c #BEB884",
"8  c #BFB884",
"9  c #BFB985",
"0  c #C0B983",
"q  c #C0B985",
"w  c #C2B885",
"e  c #C2BB85",
"r  c #C0B887",
"t  c #C0BA86",
"y  c #C1BA86",
"u  c #C1BB87",
"i  c #C2BB87",
"p  c #C5BB86",
"a  c #C4BA87",
"s  c #C1BC85",
"d  c #C3BC86",
"f  c #C2BD86",
"g  c #C1BE87",
"h  c #C3BE86",
"j  c #C3BE87",
"k  c #C4BD87",
"l  c #C6BC87",
"z  c #C5BE87",
"x  c #C1B988",
"c  c #C2BA89",
"v  c #C5BB88",
"b  c #C2BC88",
"n  c #C3BC88",
"m  c #C3BD89",
"M  c #C4BD89",
"N  c #C5BE88",
"B  c #C4BF88",
"V  c #C6BF89",
"C  c #C4BC8B",
"Z  c #C4BE8A",
"A  c #C5BE8A",
"S  c #C5BF8B",
"D  c #C5C088",
"F  c #C5C089",
"G  c #C6C18A",
"H  c #C6C08C",
"J  c #CCCB93",
"K  c #CECB94",
"L  c #CDCC94",
"P  c #CFCD94",
"I  c #CFCC95",
"U  c #CECD95",
"Y  c #CDCE95",
"T  c #CFCE95",
"R  c #CECD97",
"E  c #CFCE96",
"W  c #CECF96",
"Q  c #D0CF96",
"!  c #D0CF97",
"~  c #D0CD98",
"^  c #D2D292",
"/  c #D3D393",
"(  c #D3D492",
")  c #D3D693",
"_  c #D4D593",
"`  c #D6D793",
"'  c #D0D094",
"]  c #D1D195",
"[  c #D1D097",
"{  c #D3D594",
"}  c #D4D494",
"|  c #D5D595",
" . c #D6D594",
".. c #D5D694",
"X. c #D4D794",
"o. c #D7D695",
"O. c #D6D795",
"+. c #D6D696",
"@. c #D7D797",
"#. c #D8D794",
"$. c #D8D796",
"%. c #D5D895",
"&. c #D7D894",
"*. c #D6D994",
"=. c #D7DA95",
"-. c #D4D996",
";. c #D7D896",
":. c #D6D996",
">. c #D6D897",
",. c #D5DA97",
"<. c #D7DA97",
"1. c #D8D997",
"2. c #D1D098",
"3. c #D2D198",
"4. c #D2D199",
"5. c #D7D998",
"6. c #D5DA98",
"7. c #D8D898",
"8. c #D9DA98",
"9. c #D8DB98",
"0. c #DBDFA2",
"q. c #DAE0A2",
"w. c #DBE1A3",
"e. c #DCE0A3",
"r. c #DDE3A3",
"t. c #DAE3A4",
"y. c #DDE1A4",
"u. c #DFE0A4",
"i. c #DCE2A4",
"p. c #DDE3A5",
"a. c #DEE2A5",
"s. c #DCE2A6",
"d. c #DDE3A7",
"f. c #DFE3A6",
"g. c #DBE4A5",
"h. c #DEE4A4",
"j. c #DFE5A5",
"k. c #DCE5A6",
"l. c #DEE4A6",
"z. c #DFE5A7",
"x. c #DDE6A7",
"c. c #DEE4A8",
"v. c #DFE5A9",
"b. c #DEE7A8",
"n. c #E0E1A5",
"m. c #E0E4A7",
"M. c #E0E6A6",
"N. c #E1E7A7",
"B. c #E1E5A8",
"V. c #E0E4A9",
"C. c #E0E6A8",
"Z. c #E1E7A9",
"A. c #E0E6AA",
"S. c #E2ECAD",
"D. c #E4EFAD",
"F. c #E4EDAE",
"G. c #E6F1AD",
"H. c #E4F0AE",
"J. c #E5F0AE",
"K. c #E5F1AF",
"L. c #E6F1AF",
"P. c #E7F2AE",
"I. c #E7F4AF",
"U. c #EBF7AB",
"Y. c #E8F3AF",
"T. c #EBF7AD",
"R. c #E9F6AE",
"E. c #EAF6AE",
"W. c #EAF7AF",
"Q. c #EBF7AF",
"!. c #EBF9AE",
"~. c #EAFAAF",
"^. c #ECFAAD",
"/. c #ECF8AE",
"(. c #EDF9AF",
"). c #EDFBAE",
"_. c #ECFAAF",
"`. c #EBFCAE",
"'. c #EEFCAF",
"]. c #E5EFB0",
"[. c #E6F0B1",
"{. c #E4F3B0",
"}. c #E6F2B0",
"|. c #E7F2B0",
" X c #E7F3B1",
".X c #E7F1B2",
"XX c #E7F3B3",
"oX c #E5F4B1",
"OX c #E6F5B2",
"+X c #E7F6B3",
"@X c #E6F5B4",
"#X c #E8F1B0",
"$X c #E9F2B1",
"%X c #E8F3B1",
"&X c #E8F1B2",
"*X c #E8F2B3",
"=X c #E8F5B0",
"-X c #E9F6B1",
";X c #E8F4B2",
":X c #E9F4B2",
">X c #E9F5B3",
",X c #EAF5B3",
"<X c #E8F4B4",
"1X c #E9F5B5",
"2X c #EAF6B4",
"3X c #E8F4B6",
"4X c #EBF8B0",
"5X c #EBFBB0",
"6X c #ECF9B1",
"7X c #EDF9B1",
"8X c #EDFBB0",
"9X c #EEFAB0",
"0X c #EDFAB2",
"qX c #EEFBB3",
"wX c #EEFCB1",
"eX c #EDFAB4",
"rX c #F0FEB3",
"tX c #EBF1C3",
"yX c #EAF0C4",
"uX c #EAF1C5",
"iX c #EBF1C5",
"pX c #EBF3C4",
"aX c #EBF2C6",
"sX c #ECF2C6",
"dX c #ECF3C7",
"fX c #ECF4C5",
"gX c #EEF6C5",
"hX c #ECF5C6",
"jX c #EDF5C6",
"kX c #EEF6C7",
"lX c #ECF3C9",
"zX c #EEF5C9",
"xX c #EFF5C9",
"cX c #EFF7C8",
"vX c #EEF5CB",
"bX c #EFF6CA",
"nX c #EFF6CC",
/* pixels */
"i i i m L.;X;X;X;X;X;X<XbXbXkXbXdXbXbXbXdXbXbXdXbXbXbXdXbXbXkXkX6X'.wX).6X6X'.wXbXbXdXdXbXbXbXbX~.6X'.6X;X;X;XL.A i i 0 + + o + ",
"i i i A L.<X;X;X;X;X<X<XbXbXbXlXbXbXdXbXdXbXbXdXbXdXbXbXdXbXdXkX'.6X'.6XwX'.6X).kXlXbXbXbXdXdXkX).6XwX'.;X;X;XY.m i C i = + + + ",
"i i i d L.;X;X;X;X;X;X<XbXbXkXlXbXdXbXbXbXbXbXbXdXbXdXbXdXbXlXbX6XwX).wX'.6XwX'.bXbXbXbXbXbXlXbX'.6X).).;X;X;XL.F i i 9 = + o X ",
"C D d F .X;X;X;X;X;X;X;XdXdXbXbXbXdXbXbXbXdXdXbXbXbXdXbXbXkXbXkX6XwX).6XwXwX6X5XkXlXkXbXdXbXbXkX6XwX6X).;X;X;XL.F d z m 2 = = = ",
"t.i.i.z.I. X;X;X6X).wX~.%X;X<X<X<X<X<X<X<X<X<X;X5X6XwX'.5X6XeX6Xz.z.z.z. X;X;X;X<X<X<X<X<X<X<X<X;X;X;X;X;X;X;X;Xi.w.t.w.I J J J ",
"z.z.z.z.;X X;X;X'.6X).'.;X;X;X;X;X;X;X;X;X;X;X;X6X).6X).'.'.6X).r.z.z.z. X X;X;X;X;X;X;X;X;X;X;X;X;X;X;X;X;X;X Xc.z.z.z.2.I W 2.",
"i.i.c.z.;X;X;X;XwX).'.6X<X;X;X;X;X;X;X;X;X;X;X;XwXwX'.wX).'.5X~.z.z.z.z. X;X;X<X;X;X;X;X;X;X;X;X;X;X;X;X;X;X;XY.z.z.k.k.4.I W W ",
"C.C.c.C.;X<X;X;X5X5X6X6X;X%X;X;X;X;X;X;X;X;X;X;X).6X6X'.6XwX6X5XM.z.z.Z. X;X;X;X;X;X;X;X;X;X;X;X;X;X;X X;X X;XI.C.c.z.z.2.I 2.I ",
").6X).6X X X;X Xm.z.C.C.%X;X;X;X;X;X;X;X6XwX6XwX'.6X6X).;X;X;X;X X X X X;X;X;X;X;X;X;X;X~.6X'.~.;X;X;X Xz.z.z.z..XI.;XL.[ I W I ",
"6X).wXwX;X;X;XL.C.i.i.C..X;X;X;X;X;X;X;XwX'.).'.wX'.wXwX;X;X;X;X;X;X;X;X;X;X;X;X;X;X;X;X'.wXwX).;X;X;XI.z.z.z.z.;X;X;X.X[ I W W ",
"'.wX6X).;X;X;X%Xc.z.i.C.;X;X;X;X;X;X;X;X).).wX6X~.wXwXwX;X;X;X;X;X;X;X;X;X;X;X;X;X;X;X;X).6X6XwX;X;X;X;Xz.z.z.z.%X X;X%X4.I I W ",
"6X).'.6X;X X;XL.z.i.z.i.Y.;X X.X X X X%X).6X6X).5X).'.~.;X X X.X X X X X;X;X;X;X;X;X;X;X).wX'.6X;X X;X.Xz.z.z.m.L. X;XL.2.I I [ ",
" X;X;X;Xm.z.z.z.9.%.%.9.z.C.z.z.z.z.z.z.z.z.z.m..X;X;X Xz.z.z.z.z.z.z.z.~.wX).6XwXwX'.'.wX).'.5XwX'.wX~.;XI.;XL.z.k.z.w.W [ I W ",
";X;X;X Xm.z.z.i.%.O.1.%.r.i.z.i.z.z.i.z.z.z.z.z. X X;X Xz.z.z.i.z.z.z.z.~.'.wXwX6X'.6X'.wX6XwX6X'.6X6X).;X;X;X%Xz.z.z.z.W W I I ",
";X;X;X;Xm.i.c.n.O.O.O.O.z.z.z.i.z.i.r.t.z.z.z.z.Y.;X;X Xz.i.i.z.z.z.r.z.).6X6X6X'.wX).wX'.'.wXwX6X).wX'.;X;X;X;Xz.z.z.w.4.W W W ",
" X X X.XC.C.i.i.6.6.%.%.z.m.z.m.z.z.z.z.z.z.z.Z.L.;X;X.Xz.z.z.z.z.z.z.z.~.).).).wX~.6X6X5X6X).6XwXwX6X).;X.X%XL.z.i.z.z.I I W I ",
"z.z.z.z.z.z.z.i.L.;XY.;X).).).6X).~.~.).%X.X XL.z.z.z.z.z.t.i.z.L.%X;XL.C.C.z.C.;X;X;X;XwX6X'.6X;X X;X;XC.m.z.i.z.z.m.i.A i C i ",
"z.z.i.z.z.i.z.z.;X;X X;X).6X'.wX'.6X'.6X;X;X;X Xz.z.z.z.i.z.z.z.;X;X;X;Xz.i.z.z.;X;X;X;X).).wX6X;X X;X;XC.m.z.z.z.i.c.i.m i i i ",
"z.r.z.z.z.i.z.z.;X;X;X;X6X6X'.wX6XwX).wX<X;X;X;Xz.z.z.z.z.m.z.z.%X;X;X;Xz.z.z.c.Y.;X;X;X6XwX6X).;X;X;X;Xm.i.z.i.z.z.z.i.d i i i ",
"z.z.z.i.i.r.z.i.L..XI..X).6X).6X'.wX6X).;X X;XL.m.z.i.m.i.i.i.z.L.%XL..XC.i.i.C.L.;X.X%X).'.).6X;X X;X XC.i.z.z.i.z.z.i.A i i i ",
"i.z.m.m.6.1.O.%.z.z.z.z.;X;X;X;X;X;X;X;Xm.z.z.z.z.z.i.i.9.%.%.1.1.%.%.9.n.C.i.C.m.z.z.z.C.z.z.C.z.z.z.z.z.i.i.z.z.z.z.i.d i i i ",
"z.z.z.i.$.O.O.%.i.z.z.z.;X;X X;X;X;X;X;Xz.z.z.r.c.i.z.i.%.O.O.%.O.O.O.O.i.i.i.C.z.z.z.z.i.z.i.z.z.z.z.z.i.z.z.z.i.i.z.t.m i i i ",
"z.z.C.i.%.O.O.%.z.i.z.z.;X;X;X;X;X;X;X;Xn.C.z.i.C.z.C.i.1.O.O.O.O.O.O.7.n.z.C.i.z.n.t.z.m.z.i.z.r.m.z.n.m.m.z.z.C.C.z.i.d C d i ",
"r.r.i.i.%.O.1.1.r.z.w.z.L.;XL..XL.Y. X.Xm.i.i.r.i.n.i.i.O.O.O.%.%.1.%.O.i.C.i.z.i.i.i.i.n.i.i.n.i.i.i.i.i.n.i.i.i.i.i.0.m 9 9 i ",
"m m C m O.O.` O.%.%.6.%.%.6.6.9.%.%.9.9.%.%.%.6.%.%.%.1.O.O.O.%.i.i.i.i.C.z.z.i.O.%.7.@.6.%.%.%.%.%.1.%.%.%.O.O.F m d i = + = = ",
"i i i a O.O.O.O.O.O.O.$.O.O.O.` O.` ` O.O.O.%.O.$.$.O.%.O.O.O.%.i.C.z.i.n.z.z.i.%.O.O.O.$.$.O.O.$.O.O.O.O.O.O./ v i i i = + + + ",
"d d i d O.` O.O.O.O.O.O.%.%.%.%.%.%.O.%.O.%.O.%.$.1.1.%.1.%.1.6.m.z.z.z.z.z.C.i.O.O.%.6.%.O.%.O.O.O.O.O.%.%.O.O.z i C 0 , + = + ",
"i 9 i i / ) O.O.O.O.O.O.O.%.%.) O.{ O.O.O.` O.` / / / / / / / O.w.w.0.i.w.i.i.0.O.O.%.{ O.` O.O.` O.O.O.O.O./ ) i 9 i 7 + + + + ",
"o = = 2 C d i d ~ Q [ I D d d d m d d d d D d i , = = = 2 , = = , = 2 = , , = 2 9 d m d d d d A Q [ Y Q m d z i , + = + + + + + ",
"+ o + + 9 i i m I K W I m i i i i d i i m 9 m 9 + + + o X X X + + X X +   + o + 9 C d d d i i d I I I I d i C 9 = + + + + & + + ",
"o +   + 9 C 9 i I I I Y i C 9 i i i i i 9 i d i + o o o o + + + + + + + + + o + 9 m m 9 9 d i i Y W I I C i 0 i + + X X X + + + ",
"3 2 2 3 d F F F [ [ 4.4.F m A A m A m A A A m m 1 , , , = = = = + + + + + = = , m D m Z D D z D Q 4.4.W A A S A 2 2 2 2 2 2 2 2 ",
"yXaXtXtXY.).~.Y.).6X(.5XpXaXtXaXaXaXaXyXaXaXaXtXL.L.L.F.z 7 i 7 + + + = 6 9 9 z F..XL..X~.Y.U.~.kXlXlXdXtXaXaXaXyXyXtXyXyXyXyXyX",
"bXbXbXkXwX'.wXwX6XwX6XwXbXbXbXbXbXbXbXbXbXbXbXbX+X X;XL.A i i i = + + ; C C i F .X5X;X;XwXwXwXwXkXbXbXbXbXbXbXbXbXbXbXbXbXbXbXbX",
"bXlXkXkX6X'.wX'.6X'.`.6XbXbXbXbXbXdXbXbXbXbXkXbX3X.X;XL.d i i w = + X = 9 d i d L.;X;X;X'.).).6XbXbXbXlXdXbXbXbXkXbXdXdXbXbXbXlX",
"bXbXbXbX6X).'.'.6X).6X5XhXbXkXbXbXbXdXbXbXdXbXbX<X X;XL.A d A C 2 + + = m m m F L.;X<X;X).wX).6XkXlXbXbXbXbXlXvXlXbXbXbXdXdXbXbX",
".X<X<X;X;X;X;X;X;X;X;X;X6X6XwX6X.X+X<X<X<X<X<X+X;X;X;X Xi.i.i.i.d 9 i m 0.z.w.i.<X X;X;X+X+X;X;X%X3X<X<X<X<X<X<X<X<X<X<X;X<X<X<X",
";X;X;X;X;X;X;X;X;X;X<X;X'.wX'.6X X X;X;X;X;X;X;X;X;X;X;XC.C.C.i.m i d d i.c.z.C. X;X;X;X;X X X;X;X%X;X;X;X;X;X;X;X;X;X;X;X;X;X;X",
";X;X;X;X;X;X;X;X;X;X;X;X).6X6X'.;X;X;X;X;X;X;X<X;X;X;X Xi.i.i.r.m d i m i.c.i.z. X;X;X;X;X;X X X;X;X;X;X;X;X;X;X;X;X;X;X;X;X;X;X",
";X;X;X;X;X;X;X;X;X;X;X;X~.wX'.wX;X X X.X;X;X;X;X;X;X;X;XC.C.C.r.m m i A z.C.C.m. X;X;X;X;X;X;X;X;X;X;X;X;X;X;X;X;X;X;X;X;X;X;X;X",
";X;X;X;X;X;X;X;X;X;X;X X;X;X;X Xb.c.z.z.).6X6X'.'.6X'.6X;X;X;XL.m i i d Y.'.~.6X;X;X;X;X;X;X;X;X;X;X;X;X6X'.~.'.6XwXwX). X;X;X;X",
";X;X;X;X;X;X;X;X;X;X;X;X;X;X;X Xz.z.z.m.~.).'.6X6X6XwX).;X X;XL.m d d F ).rX'.).;X;X;X;X;X;X;X;X;X;X X;X'.wX6X'.6X).6X).;X;X+X X",
";X;X;X;X;X;X;X;X;X;X;X;X;X;X;X Xz.z.z.z.wX6XwX).6X).).).;X;X;XL.d i 9 D Y.wXwX'.;X;X;X;X;X;X;X;X<X;X;X<XwX).).6XwX'.wXwX;X;X;X;X",
";X<X;X;X;X.X;X;X<X;X;X;X;X;X;X Xz.z.z.b.).).wX6X~.(.5X).;X;X;XL.F i C F 5X6X).~.;X X.X%X X X X X;X;X;X<X).6XwX5X'.6X~.~.;X X X X",
";X;X;X;Xm.z.z.m. X;X;X;X6X).wX6X).6X~.5X;X;X;X;Xc.z.C.z.z.C.C.C.I I I W  X;X;XY.Z.z.z.z.z.z.z.z.6X6X).6X6XwX'.`.;X;X;X.XC.z.z.z.",
";X;X;X Xz.z.z.z. X;X;X;XwXwX'.6X6X).6XwX;X;X;X;Xz.z.z.z.z.z.i.c.[ W W [  X;X;X;Xz.z.z.i.i.z.z.z.).wX'.wX).wX6X'.;X;X;XI.c.z.i.z.",
";X;X;X;Xz.z.z.z. X;X;X;X'.6X6X).'.wXwXwX;X;X;X;Xn.z.C.i.i.z.C.i.W I I 4..X;X;X;Xz.z.z.z.z.z.i.z.).6X6XwX'.wX'.'.;X;X;X;Xz.i.z.z.",
";X;XL.I.m.z.z.z..X;X;X;X5X).(.5X).).).Y.%X%X%XY.C.C.i.C.i.i.n.i.[ W W [ L.;X X Xz.z.i.z.z.z.z.z.).(.).).6X'.6X~.;X;X.XL.z.z.z.i.",
"z.m.m.Z.;X).).6X;X;X;X Xc.C.C.m.9.9.6.%.1.1.9.@.i.c.c.i.@.%.6./ [ W W 2.i.C.z.m.r.z.z.r.%X X.XI.9.O.6.9..X;X;X%XC.m.m.m.z.z.i.z.",
"i.m.z.z.).wX6X6X;X;X;X%Xz.i.z.z.O.O.O.` O.%.O.O.i.n.z.n.O.O.O.O.[ W I W i.i.z.z.z.z.z.r. X;X;X X$.O.O.$.%X;X;X;Xz.z.i.z.z.z.i.z.",
"z.z.r.z.~.wX'.6X;X;X;X%Xz.z.z.z.%.O.O.O.O.%.O.O.i.z.z.i.6.O.O.O.I W I 2.z.z.i.c.k.z.z.z.%X;X;X X9.O.O.1.%X;X<X%Xz.z.i.z.m.i.z.z.",
"r.i.z.z.~.6X).6X<X;X;XY.z.w.z.w.1.%.%.$.$.%.$.9.z.z.z.z.O.O.O.O.I I I I z.i.C.i.z.i.z.z..XL..X].@.O.O.7.%X;X%X%Xz.k.i.i.i.i.i.r.",
"%.O.%.9.c.C.C.m.m.C.C.i.%.%.%.1.z.i.i.t.L.;X%XL..X X;XL.,.%.O.O.F m d d i.n.C.C.z.z.r.i.6.9.1.@.i.i.i.i.C.C.C.i.9.%.%.%.1.%.%.9.",
"O.O.O.1.i.i.i.z.i.C.i.c.%.1.%.%.n.c.z.z.;X;X;X;X X X;X X%.` O.O.d i i m t.i.c.i.w.z.z.i.O.O.O.O.i.C.z.i.C.i.C.i.%.O.1.O.O.O.O.O.",
"O.O.O.O.n.z.i.z.z.z.z.i.%.#.1.1.i.c.r.m.;X;X;X;X X X+X X%.O.O.O.m d d d i.C.i.c.c.n.i.i.1.O.O.%.n.n.c.z.i.C.z.i.1.O.O.O.O.O.O.O.",
"%.%.%.7.i.C.c.c.i.i.z.i.1.` O.%.z.i.z.z.L.;X.X.X X X;XL.1.O.O./ i 9 9 m r.i.i.i.z.i.z.z.O.O.O.%.i.c.z.i.n.n.i.i.%.O.O.O.O.O.O.O.",
"i.i.n.i.z.z.c.n.$.1.%.%.$.O.O.O.%.6.1.%.9.1.%.6.1.1.%.O.z 0 z i = = & 2 m A m F / 9.O.O.O.O.O.O.%.%.%.%.9.%.%.%.O.O.O.O.O.O.O.O.",
"n.z.z.i.i.z.z.i.O.O.O.O.O.O.O.O.O.O.O.O.%.O.` O.%.` %.[ d i i 9 + + + + 9 i i d O.O.O.O.O.O.O./ 1.O.1.O.O.O.1.O.O.O.O.O.O.O.O.O.",
"C.C.z.z.z.z.z.i.O.O.%.%.O.O.O.O.O.O.%.%.*.%.%.%.1.O.%.O.A i C 9 , + + = i d i A ` O.%.*.%.O.` O.%.%.%.6.1.O.%.%.1.1.O.1.1.O.O.1.",
"w.r.w.w.t.w.i.0.O./ O.O.O.O.O.O.O.O.O.%.` O.O.O./ ` O./ i 9 i i + + + = 9 i 9 i / / ) [ O.O.O.O.O.O.` O./ / / / / / / / / / / / ",
", = , 2 i z d d m d m d Y 4.I W W W W I D m d d d d d d 2 + = = + + + + + = + = = , = 3 m d d d z d A i 3 = ; , , = , = , , = , ",
"o X o + 0 i i i C m 9 m I I W I I W W I m 9 d i d C d 9 + + + & + + + & o + + + X X + ; 9 i d i i i d 8 + & + & + X + X   + X o ",
"+ + + = i i i i i i 9 m I 2.Q I J 2.I I m 9 i i i i 9 d = + + + + + + + + + = o + = + = 9 d i i i i i i = = o o + + + + + + + + ",
"+ + + + i i i i i i m m I I Q W 2.I W I d m i 9 C d m 9 + + + + + + + + + + o + + + + + 9 d i i i i C 0 + + + + + + + + + + + + "
};
