/* XPM */
static char *e61fce3353af4b9ad036cb0ff4b55449KgSKHjzaomaO32sS[] = {
/* columns rows colors chars-per-pixel */
"64 64 155 2 ",
"   c #865785",
".  c #845987",
"X  c #855C89",
"o  c #8A5D8C",
"O  c #905E8F",
"+  c #8F5F91",
"@  c #8C618E",
"#  c #92658F",
"$  c #8E6391",
"%  c #8F6893",
"&  c #926593",
"*  c #946896",
"=  c #986C97",
"-  c #936798",
";  c #966A98",
":  c #9B6C9C",
">  c #9D719E",
",  c #A36F9D",
"<  c #A2729E",
"1  c #9F74A2",
"2  c #A274A3",
"3  c #AA76A6",
"4  c #A47BA6",
"5  c #AA7DA6",
"6  c #A57DA8",
"7  c #AD7DAD",
"8  c #B17DAE",
"9  c #AE7EB0",
"0  c #B27CB0",
"q  c #A580A7",
"w  c #AB81A7",
"e  c #A781AA",
"r  c #AD81AC",
"t  c #AD89AE",
"y  c #B182AE",
"u  c #AF83B0",
"i  c #AF8BB1",
"p  c #B182B1",
"a  c #B48DB4",
"s  c #B98EB6",
"d  c #B68EB8",
"f  c #B98EB9",
"g  c #B591B5",
"h  c #B991B6",
"j  c #B791B8",
"k  c #BB93BB",
"l  c #BF9ABE",
"z  c #C294BE",
"x  c #C29ABE",
"c  c #BF95C0",
"v  c #BF99C0",
"b  c #C296C1",
"n  c #C29BC3",
"m  c #C89FC7",
"M  c #C99FC9",
"N  c #C3A6C4",
"B  c #C2A7C6",
"V  c #C3A4C4",
"C  c #C4A5C4",
"Z  c #C4A7C5",
"A  c #C4A5C7",
"S  c #C5A6C6",
"D  c #C6A7C6",
"F  c #C6A7C7",
"G  c #C5A4C5",
"H  c #C8A5C6",
"J  c #C9A6C7",
"K  c #CAA7C7",
"L  c #C9A5C6",
"P  c #C6AAC1",
"I  c #C6AAC3",
"U  c #C5A8C4",
"Y  c #C6A8C4",
"T  c #C6A9C5",
"R  c #C7A9C5",
"E  c #C4AAC5",
"W  c #C7ABC4",
"Q  c #C5A8C6",
"!  c #C7A8C7",
"~  c #C6A9C7",
"^  c #C4AAC7",
"/  c #C7AAC6",
"(  c #C5ADC5",
")  c #C6ACC7",
"_  c #C9A8C5",
"`  c #C8AAC4",
"'  c #C9A8C7",
"]  c #C8AAC6",
"[  c #C8ABC7",
"{  c #C9ABC7",
"}  c #C9ADC6",
"|  c #C7A5C8",
" . c #C6A5C9",
".. c #C9A0CA",
"X. c #CCA3CB",
"o. c #C8A4C8",
"O. c #C9A7C8",
"+. c #C8A6C9",
"@. c #CBA6C8",
"#. c #CAA7C8",
"$. c #CBA5CA",
"%. c #CAA4CB",
"&. c #C9A7CA",
"*. c #CAA6CA",
"=. c #CBA7CB",
"-. c #CBA5CC",
";. c #C9A7CC",
":. c #CAA6CC",
">. c #CBA7CD",
",. c #CCA6CD",
"<. c #CEA5CF",
"1. c #CBA6CB",
"2. c #C4A9C8",
"3. c #C7A8C8",
"4. c #C6A9C8",
"5. c #C5AAC9",
"6. c #C7AAC8",
"7. c #C7AAC9",
"8. c #C7A8CA",
"9. c #C7A8C9",
"0. c #C8A9C8",
"q. c #C8A9C9",
"w. c #CAA8C9",
"e. c #CBA8C9",
"r. c #C8ABC9",
"t. c #CBAAC9",
"y. c #CBA9CA",
"u. c #CAA8CB",
"i. c #CCA9CA",
"p. c #CCAACB",
"a. c #CDAACB",
"s. c #CAACC8",
"d. c #C9ACCA",
"f. c #CBACCB",
"g. c #CBA9CC",
"h. c #C9AACC",
"j. c #CCAACD",
"k. c #CCA8CE",
"l. c #CDA9CF",
"z. c #CBACCC",
"x. c #CBAECC",
"c. c #CBADCF",
"v. c #CCADCC",
"b. c #CEACCF",
"n. c #CDAECE",
"m. c #CCAACC",
"M. c #D0A7CF",
"N. c #D0A9CD",
"B. c #CDA7D0",
"V. c #CFA6D0",
"C. c #CEA8D1",
"Z. c #CDABD0",
"A. c #CEABD0",
"S. c #D1A6D0",
"D. c #D3ABD3",
/* pixels */
"s.Y s.C D s.V 6.6.6.6.6.Y Y Y I Y I I I Y Y 6.6.+.+.C.l 6 p 3 s w.} Y { c.Y V s.6.6.Y Y Y Y Y Y ) ) ) ) ) ) ) ) D +.,.o.r 7 9 9 ",
"Y C { C N 6.N V 6.6.6.6.6.6.w.{ { Y { Y { w.w.w.w.:.C.b 6 p 3 s w.I N C w.Y V D w.6.w.6.Y Y Y Y Y Y Y Y Y Y Y Y D w.,.o.r 7 9 7 ",
"C C s.Y 6.v.h.c.6.| 6.6.6.Y { { { Y { Y { w.+.+.:.:.B.l 3 p 3 s w.Y D Y c.c.e.c.+.6.+.Y Y Y Y Y Y 6.6.Y Y Y Y 6.L +.,.M r 7 9 7 ",
"D Y v.V V +.G +.:.+.:.+.+.+.+.+.+.+.+.+.+.+.+.:.:.+.,.b 7 p 7 k e.Y Y { G G L +.+.+.+.+.L L L L w.:.w.w.w.w.w.w.L +.X.M r u p 9 ",
"w.w.+.k t a t i i t t t y y y y t t t t t t t i i t p 4 & ; & 4 e.Y w.V a t a a t t t t t t y y t t t t r r r r r t t r & * * * ",
"w.w.| a q q 4 6 r r r r r y y r r r r r r r r r r 6 r 2 @ * & 4 e.Y w.x w 2 e 5 r r r r r w r r r r r r r r r r e r e 6 & * * & ",
"+.w.:.j e r 7 r 7 7 7 7 7 7 7 7 7 7 7 7 6 6 6 6 7 3 7 2 @ & @ 4 k.D h.n e 5 p r 7 7 7 7 7 5 7 7 7 7 7 7 r r 7 r 7 7 6 3 & & & # ",
"+.h.k.j e r 6 7 7 8 8 8 8 8 8 8 8 7 7 7 7 7 7 7 r 6 r 2 @ * $ 4 v.D +.x e 6 p 3 8 8 8 8 8 8 8 8 8 8 8 8 8 7 7 7 7 7 7 7 & * & # ",
"w.+.k.j 6 r 7 7 0 0 0 0 0 8 8 8 0 0 0 0 0 7 7 7 7 7 y 2 @ * @ 4 C.D k.v r 7 7 8 8 8 8 8 8 8 8 8 8 0 0 8 0 8 8 7 7 0 7 3 & & # & ",
"w.+.,.h 6 r 8 8 0 0 0 0 0 0 8 8 0 0 0 0 0 0 7 7 7 7 p 2 @ * @ 4 C.D k.v r 7 7 8 8 8 8 8 8 8 8 8 0 0 0 0 0 0 8 8 8 0 7 3 & & # & ",
"w.+.,.h 6 r 8 8 0 0 0 0 0 0 0 0 0 0 8 8 8 8 8 7 7 7 y 2 @ * @ 4 k.D k.n r 7 8 8 0 0 0 0 0 0 8 8 8 8 8 8 0 0 0 0 8 0 7 3 & & $ & ",
"w.+.,.h 6 y 8 8 0 0 0 0 0 0 0 0 0 8 8 8 8 8 8 8 7 8 y 2 @ * @ 4 k.D k.x r 7 8 8 0 0 0 0 0 0 7 7 8 8 8 8 8 0 0 0 8 0 7 3 & & $ & ",
"w.+.,.h 6 r 8 8 0 0 0 0 0 9 9 9 7 7 7 7 8 8 8 8 8 8 p 2 $ * @ 6 k.D k.l r 7 8 8 0 0 0 0 0 9 9 7 7 7 8 8 8 8 0 0 8 p 7 3 & & & & ",
"w.+.,.h 6 r 8 8 0 0 0 9 9 9 9 7 7 7 7 7 8 8 8 8 8 8 0 2 $ * @ 6 k.D k.l r 7 8 8 8 0 0 0 9 9 9 7 r 7 7 7 8 8 0 0 7 p 7 3 & & $ & ",
"w.+.,.h 6 r 8 7 0 0 0 9 9 9 9 7 7 7 7 7 8 8 8 8 8 8 0 2 $ * @ 6 c.C e.l r 7 8 8 8 8 0 0 9 9 9 r e w r 7 7 7 7 9 9 0 7 3 & * $ % ",
"w.+.,.h 6 r 8 7 0 0 0 9 9 9 9 7 7 7 7 7 8 8 8 8 8 8 0 2 & * @ 4 k.C e.l r 7 8 8 8 8 0 0 9 9 9 r e e r r 7 7 7 9 9 p 7 3 & & $ % ",
"w.+.,.h 6 r 8 8 0 0 0 9 9 9 9 9 7 7 7 7 8 8 8 8 8 8 0 2 & * @ 4 k.D k.x e 5 8 8 8 8 8 8 7 7 7 7 7 7 7 7 7 7 7 7 7 0 7 3 & & & & ",
"w.+.,.h 6 r 8 8 0 0 0 0 9 9 9 9 7 7 7 7 8 8 8 8 8 8 0 2 & * @ 4 k.D k.x r 5 8 8 8 8 8 8 7 7 7 7 7 7 7 7 7 7 7 7 7 0 7 3 & & & & ",
"w.+.,.h 6 r 8 8 0 0 0 0 9 9 9 9 7 7 7 7 8 8 8 8 8 8 0 2 & * @ 4 k.D k.x e 5 7 8 8 8 8 8 7 7 7 7 7 7 7 8 7 7 8 8 7 0 7 3 & & & & ",
"w.+.k.j 6 r 7 7 0 0 0 0 0 9 9 9 7 7 7 7 8 8 8 8 8 8 0 2 O * @ 6 k.D k.l e 5 7 7 8 8 8 8 8 7 7 7 7 7 7 7 7 7 8 8 7 0 7 3 & & & & ",
"w.+.k.j 6 r 7 7 0 0 0 0 0 9 7 7 7 7 7 7 7 7 8 8 7 8 0 2 O * @ 6 k.D k.l e 6 7 7 8 8 8 8 8 7 7 7 7 7 7 7 8 8 8 8 8 p 7 3 & & & & ",
"w.6.k.j 6 r 7 7 0 0 0 0 0 0 8 7 7 7 7 7 7 7 8 8 7 8 p 2 $ * @ 6 k.D k.v 6 6 3 7 8 8 8 8 8 8 8 7 7 7 7 7 8 8 8 8 8 p 7 3 & * & & ",
"w.6.k.j 6 r 7 7 0 0 0 0 8 8 8 8 8 7 7 7 7 8 8 8 7 8 p 2 $ * @ 6 C.| C.n 6 6 6 7 8 8 8 8 8 8 8 8 8 8 8 8 8 8 8 8 8 0 7 3 & * & & ",
"w.+.k.j 6 r r 7 9 0 0 0 8 8 8 8 8 7 7 7 7 7 8 8 7 8 p 2 $ * @ 6 C.| C.n 6 6 6 3 7 8 8 8 8 8 8 8 8 7 8 8 8 8 8 8 8 0 7 3 & * & & ",
"+.+.:.j 4 6 7 p 7 7 8 8 8 8 8 8 8 7 7 7 7 7 8 8 p 7 p : * ; @ 4 C.| C.v r 7 r u 9 9 8 8 8 8 8 8 8 8 7 7 8 8 8 8 0 8 7 3 = & * & ",
"+.+.,.j 6 6 7 7 7 7 8 8 8 8 8 8 8 7 7 7 7 8 8 7 3 3 7 : & & $ 6 D.+.C.n r 7 r r 9 9 8 8 8 8 8 8 7 8 7 7 8 8 8 8 7 7 7 3 * $ & & ",
",.:.B.h 6 7 7 7 7 7 8 8 8 8 8 8 p u 7 7 7 7 8 8 p 7 p > & & $ 6 D.+.D.n r r r r 9 9 8 8 8 8 8 8 8 7 7 7 8 8 0 0 p p p 3 * o & & ",
",.X.,.h 6 r u u 7 7 8 8 8 8 8 8 9 u 7 7 7 7 8 8 7 7 u 1 * & $ 4 S.o.S.b r r r r 9 9 8 8 8 8 8 8 7 7 7 7 8 8 0 0 8 7 7 4 ; $ & $ ",
"s a f 5 = : : : : : : : : : : : : : : : : : : : = = : * & & $ > f a f r : : : : : : : : : : : : : : : : : : : : = = = = & $ & $ ",
"5 5 6 = o $ @ @ @ @ o o @ @ @ @ $ $ o o o o O O & & $ & & & $ ; 7 4 7 2 @ $ $ $ $ $ + + o o @ @ @ @ @ @ o o o o * $ & & $ $ & $ ",
"y r y < & * * & * * * * & & & & * * * * * * * * & * & & * $ & ; a 7 p 3 * * - & * * * * * * * * * & & & * * * * * & & * $ $ & $ ",
"5 5 7 = o @ @ @ @ @ @ @ @ @ @ @ @ @ @ @ o o o @ o & @ @ & o & = r 2 7 > @ @ @ o @ @ @ @ @ @ @ @ @ @ @ @ @ @ @ @ o o $ $ @ @ $ $ ",
"x x n k a j a j j j j j j j g g g g j j j j j j j h k y : 5 2 y x l x k k j i k a g g g a j j g j j j g g g g g g j h s > 2 3 2 ",
"L H e.e.w.N.k.A.v.v.v.v.k.v.v.v.v.v.v.v.v.v.v.v.:.,.M.z 7 p 8 f @.C L L w.k.| A.h.h.k.c.k.k.k.v.v.v.v.v.v.v.v.v.w.e.@.o.r p p 9 ",
"L L e.D +.k.G G +.+.+.+.o.L L L L L L D | | | +.k.,.B.z 6 p 3 a D.e.e.+.h.k.| :.| |  .| +.L L L o.L L D D D D D e.e.+.m e 7 7 3 ",
"L L k.L +.k.+.+.k.k.M.M.M.N.N.N.k.e.k.k.k.k.k.k.,.,.S.b 7 p 3 f k.G L D D k.:.:.k.k.k.k.k.k.N.N.N.k.k.e.e.e.e.e.L +.X.M r r u 7 ",
"+.L k.l h l k l d d f f f s s s s a a a a d d d k k c p : 3 : y ,.G h.V k k k l d d d d f s s s s s s a a a a a j h h f > 1 2 2 ",
"L L +.a 4 4 2 4 6 6 6 7 7 7 7 5 6 5 6 6 6 6 6 6 6 4 6 > o & o 2 D.L v.l e 4 4 4 6 6 6 6 6 6 7 5 5 5 5 5 5 5 5 5 4 4 4 4 o @ $ + ",
"+.w.k.j r t u p 7 7 7 7 7 7 7 7 7 7 7 7 7 7 7 7 u 7 p 4 & ; & 6 k.V A.n e e i r 7 7 7 7 7 7 7 7 7 7 7 7 7 7 7 6 r u u r & & - - ",
"+.h.:.a 6 6 3 6 7 8 8 8 8 8 8 8 8 8 8 8 8 r 7 r 7 7 u 2 o & o 4 A.D A.n e 6 r 6 7 7 7 7 7 7 7 7 y y y 8 8 r r r 6 7 7 6 $ $ & $ ",
"w.+.k.j 6 r r 7 9 0 0 0 0 8 8 8 8 8 8 8 8 7 7 7 7 9 u 2 $ - $ 6 C.V h.v r r 7 7 9 0 0 0 0 8 8 8 8 8 8 8 8 7 7 7 7 u 7 3 & & & & ",
"w.+.k.j 6 r 7 7 0 0 0 0 0 0 8 8 8 8 8 8 8 8 7 7 7 9 u 2 $ - $ 6 C.V k.v r 7 7 7 0 0 0 0 0 0 8 8 8 8 8 8 8 8 7 7 7 p 7 3 & & & & ",
"w.+.k.j 6 r 7 7 0 0 0 0 0 0 0 0 8 8 8 8 8 8 8 7 7 7 u 2 $ - $ 6 C.D k.v r 7 7 7 0 0 0 0 0 0 9 7 7 8 8 8 8 8 0 9 7 p 7 3 & & & & ",
"w.+.,.h 6 r 8 8 0 0 0 0 0 0 0 9 8 8 8 8 8 8 8 8 7 7 u 2 $ - $ 6 C.D k.v r 7 7 7 0 0 0 0 0 9 9 7 7 7 7 8 8 8 0 0 7 0 7 3 & & & & ",
"w.+.,.h 6 r 8 8 8 8 0 0 0 9 9 9 7 7 7 7 7 7 8 8 7 9 p 2 $ * @ 6 C.D k.v r 7 7 7 8 8 0 0 0 9 9 7 7 7 7 7 7 7 0 0 0 p 7 3 & & & # ",
"w.+.,.h 5 r 8 8 8 8 0 0 9 9 9 9 7 7 7 7 8 7 8 8 7 7 p 2 $ * @ 4 k.D k.l r 7 7 7 8 8 0 9 9 9 9 7 7 r 7 7 7 7 0 0 8 0 7 3 & & # # ",
"w.L e.h 5 r 8 8 8 8 0 0 9 9 7 7 7 7 7 7 8 7 7 7 7 r p 2 @ * @ 4 k.D e.x r 7 7 7 8 8 0 9 9 9 7 r r e 7 7 7 7 0 0 0 0 7 3 & & # # ",
"w.L e.h 5 r 8 8 8 8 0 9 9 9 7 7 7 7 7 7 7 7 7 7 7 r r 2 @ * @ 4 k.D e.x r 7 7 7 8 8 0 9 9 9 7 r r r 7 7 7 7 0 0 0 0 7 3 & & & & ",
"w.+.,.h 5 r 8 8 0 0 0 9 9 9 9 9 7 7 r r 7 7 7 7 7 7 u 2 $ * @ 4 k.D k.x r 7 7 8 8 8 0 9 9 9 9 7 7 7 7 7 7 7 7 7 7 0 7 3 & & & & ",
"w.+.,.h 6 r 8 8 0 0 0 9 9 9 9 9 7 7 r 7 7 7 7 7 7 7 p 2 $ * @ 6 k.D k.x r 7 7 8 8 8 0 0 9 9 9 9 7 7 7 7 7 7 7 7 7 0 7 3 & & & & ",
"w.+.,.h 6 y 8 8 0 0 0 9 9 9 9 9 7 7 7 7 7 7 7 7 7 7 p 2 $ * @ 6 k.D k.x r 7 7 8 8 8 8 8 9 9 9 9 7 7 7 7 7 7 8 8 7 0 7 3 & & & & ",
"w.+.,.h 6 r 8 8 0 0 0 0 9 9 9 9 7 7 7 7 7 7 7 7 7 8 p 2 $ * @ 6 k.D k.l r 7 7 7 8 8 8 8 0 9 9 9 7 7 7 7 8 7 8 8 7 0 7 3 & & & & ",
"w.+.,.h 6 r 8 7 0 0 0 0 9 9 7 7 7 7 7 7 7 7 8 8 7 8 p 2 $ * @ 6 k.D k.l r 7 7 7 8 8 8 8 0 9 7 7 7 7 7 7 8 8 8 8 8 0 7 3 & & & & ",
"w.+.,.j 6 r 7 7 0 0 0 0 9 9 7 7 7 7 7 7 7 7 8 8 7 8 0 2 $ * @ 6 k.D k.v r 6 7 7 8 8 8 8 0 0 8 7 7 7 7 7 8 8 8 8 8 0 7 3 & * & & ",
"w.+.,.j 6 r 7 7 0 0 0 0 8 8 8 7 7 7 7 7 8 8 8 8 8 8 0 2 $ * @ 6 C.D k.v r 6 7 7 8 8 8 8 8 8 8 8 7 7 8 8 8 8 8 8 8 0 7 3 & * & & ",
"w.+.,.h 6 r 8 7 9 0 0 0 8 8 8 7 8 7 7 7 8 8 8 8 8 8 0 2 $ * @ 6 C.D k.v r 7 7 7 7 8 8 8 8 8 8 8 8 7 8 8 8 8 8 8 8 0 7 3 & * & & ",
"+.+.,.h 4 6 7 7 8 7 8 8 8 8 8 7 8 7 7 7 7 7 8 8 0 3 p : & * $ 4 C.| C.v e 6 7 7 8 7 8 8 8 8 8 8 8 8 8 8 8 8 8 8 8 8 7 3 * & & & ",
",.,.C.k 6 r r p 8 8 8 8 8 8 8 7 7 7 7 7 7 7 8 7 7 7 p > & & $ 6 D.+.D.n r 7 r u 7 8 8 8 8 8 8 8 7 7 8 8 8 8 8 8 0 7 7 3 = & & & ",
"X.o.X.f 6 6 6 6 7 7 7 7 7 7 7 7 7 7 7 7 7 7 7 7 7 7 p > $ @ @ 4 B.G ,.c 6 6 6 6 7 7 7 7 7 8 8 8 7 7 7 7 7 7 7 7 8 7 7 3 * @ & $ ",
"S.M.D.l r i p p p p p p y y y y u u u p p u p u 7 u p 1 * $ $ 6 D.,.D.m p u p p p p 0 0 y y y y p p p p 0 0 0 0 p p p 3 = & & & ",
"z k b y > 2 2 2 2 2 2 2 2 2 < 2 2 1 1 2 2 2 2 2 2 2 2 ; & $ $ 1 n h b a 2 2 2 2 2 2 2 2 2 2 < 2 2 2 2 2 2 2 2 2 2 2 2 > & $ & $ ",
"5 5 7 : o & $ @ & & & & & & & & & & & & & & & & & & $ $ $ $ $ : y 5 r 2 @ @ & @ & & & & & & & & & & & & & & & & & & & & @ @ $ $ ",
"8 8 y < & = * * & & & & $ $ & & & $ & & & $ & & $ & $ & ; % ; > a 7 a 5 * * = * & & & & & & & & & & & & & & & & & $ & * & * ; % ",
"< , 2 &   o o o o o o o X X o o o X o o o o o o . o X o @ . X @ 3 : 2 = o o o . o o o o o o o o o o o o o o o o o . . o X o @ . "
};
