/* XPM */
static char *result[] = {
/* columns rows colors chars-per-pixel */
"64 64 217 2 ",
"   c #38006B",
".  c #3F0074",
"X  c #3F0179",
"o  c #350071",
"O  c #44026E",
"+  c #4A006D",
"@  c #420167",
"#  c #440174",
"$  c #4B0275",
"%  c #45027C",
"&  c #4B047C",
"*  c #4B0A7C",
"=  c #4A0B73",
"-  c #51017D",
";  c #54097F",
":  c #590B79",
">  c #4B147D",
",  c #4C1575",
"<  c #56147E",
"1  c #52187E",
"2  c #500A6D",
"3  c #A79F71",
"4  c #AAA374",
"5  c #AEA779",
"6  c #AEA879",
"7  c #460282",
"8  c #4C0483",
"9  c #460C84",
"0  c #4C0B83",
"q  c #4E0489",
"w  c #510483",
"e  c #53048C",
"r  c #59068E",
"t  c #530B8D",
"y  c #520F80",
"u  c #4D1382",
"i  c #4A1489",
"p  c #551583",
"a  c #5A1484",
"s  c #541984",
"d  c #54158A",
"f  c #59158C",
"g  c #561A8D",
"h  c #581A8C",
"j  c #5A1886",
"k  c #4E0492",
"l  c #550593",
"z  c #5A0694",
"x  c #550A94",
"c  c #5A0994",
"v  c #560599",
"b  c #5A069B",
"n  c #550999",
"m  c #5C0A9B",
"M  c #591893",
"N  c #620496",
"B  c #630B95",
"V  c #62049B",
"C  c #610B9D",
"Z  c #61129D",
"A  c #5D2B87",
"S  c #5E2888",
"D  c #5E2995",
"F  c #5F3096",
"G  c #662A8D",
"H  c #69318F",
"J  c #642C92",
"K  c #682B97",
"L  c #633292",
"P  c #6B3394",
"I  c #65329C",
"U  c #6B339A",
"Y  c #693B98",
"T  c #703299",
"R  c #713895",
"E  c #722F98",
"W  c #5C07A2",
"Q  c #5C09A1",
"!  c #6404A4",
"~  c #6B03AD",
"^  c #6408A6",
"/  c #6210A3",
"(  c #6A04B3",
")  c #6837A2",
"_  c #7738A0",
"`  c #75429C",
"'  c #6A439E",
"]  c #7653A5",
"[  c #7E05E7",
"{  c #803EA0",
"}  c #80419A",
"|  c #855BA9",
" . c #8501DD",
".. c #8501E4",
"X. c #8A03E5",
"o. c #8405EE",
"O. c #8A02ED",
"+. c #8B0CE8",
"@. c #8601F4",
"#. c #8D01F4",
"$. c #8603FB",
"%. c #8D02FD",
"&. c #8F0EF6",
"*. c #9201F6",
"=. c #9301FD",
"-. c #9A04FE",
";. c #9309FD",
":. c #990BFE",
">. c #960BF6",
",. c #9B1BF3",
"<. c #A31BF7",
"1. c #A30CF7",
"2. c #A123F2",
"3. c #A92BF1",
"4. c #A324ED",
"5. c #AF5AEC",
"6. c #AD57E8",
"7. c #B25DED",
"8. c #B459EC",
"9. c #AF58F3",
"0. c #B45EF3",
"q. c #BA5DF4",
"w. c #B65DF9",
"e. c #A74BEE",
"r. c #B562EE",
"t. c #B865ED",
"y. c #B76CEA",
"u. c #BA73EC",
"i. c #B770EA",
"p. c #AE62F7",
"a. c #B561F4",
"s. c #B963F4",
"d. c #BC6BF4",
"f. c #B663F9",
"g. c #BB63FA",
"h. c #BC73F4",
"j. c #BA75F7",
"k. c #C374EE",
"l. c #C87EEF",
"z. c #C172F3",
"x. c #C372F9",
"c. c #BFB884",
"v. c #C2BB86",
"b. c #C3BD89",
"n. c #C5C089",
"m. c #CFCE96",
"M. c #D0CF97",
"N. c #D5D695",
"B. c #D6D996",
"V. c #D1D098",
"C. c #D7D998",
"Z. c #D8DA98",
"A. c #D8D897",
"S. c #DBDFA2",
"D. c #DEE4A6",
"F. c #DEE4A8",
"G. c #E0E4A7",
"H. c #E0E6A8",
"J. c #E6F1AF",
"K. c #EAF6AE",
"L. c #ECFAAF",
"P. c #E7F3B1",
"I. c #E8F4B2",
"U. c #EDFBB0",
"Y. c #BD8BD8",
"T. c #BE99DE",
"R. c #BF94E3",
"E. c #C495DC",
"W. c #C69ADD",
"Q. c #C89CD9",
"!. c #C1A2DD",
"~. c #CAA1DC",
"^. c #D08EEF",
"/. c #C69CE2",
"(. c #CA9BE2",
"). c #CC9EEA",
"_. c #C893EF",
"`. c #CD8CFB",
"'. c #C989F4",
"]. c #D18EFA",
"[. c #CC93F4",
"{. c #CC99F5",
"}. c #CE93FA",
"|. c #CC9BFD",
" X c #C59AF5",
".X c #D394F6",
"XX c #D29CF4",
"oX c #D395FC",
"OX c #D39AFC",
"+X c #DB9EFF",
"@X c #CC8BEF",
"#X c #C3A2E3",
"$X c #D1B4EE",
"%X c #D4A3F4",
"&X c #DCADF6",
"*X c #D4A1FA",
"=X c #DAA9F6",
"-X c #DEBCF5",
";X c #DEBCFB",
":X c #DBB3F9",
">X c #D6A1EF",
",X c #E2A8F2",
"<X c #E3BDF4",
"1X c #E4B5FD",
"2X c #E3BDFD",
"3X c #EABAFF",
"4X c #ECF3C5",
"5X c #EEF5C9",
"6X c #DDC3FA",
"7X c #E6C2F4",
"8X c #E9C3F5",
"9X c #E4C1FD",
"0X c #EBC4FD",
"qX c #ECC9FE",
"wX c #E8CAF8",
"eX c #F0C9FF",
"rX c #F5D1FF",
/* pixels */
"v.v.v.b.P.P.P.I.I.I.I.I.5X5X5X5X5X5X5X5X5X5X5X5X5X5X5X5X5X5X5X4XU.U.U.U.U.U.U.U.5X5X5X5X5X5X5X5XU.U.U.U.I.I.I.J.n.c.b.c.4 4 4 4 ",
"v.v.v.b.P.I.I.I.I.I.I.I.5X5X5X5X5X5X5X5X5X5X5X5X5X5X5X5X5X5X5X4XU.L.U.U.U.U.U.L.5X5X5X5X5X5X5X5XU.U.U.U.I.I.I.J.n.c.b.b.4 4 4 4 ",
"v.v.v.b.P.P.I.I.I.I.I.I.5X5X5X5X5X5X5X5X5X5X5X5X5X5X5X5X5X5X5X5XU.U.U.U.U.U.U.U.5X5X5X5X5X5X5X5XU.U.U.L.I.I.I.J.n.c.b.c.4 4 4 4 ",
"b.n.b.n.P.I.I.I.I.I.I.I.5X5X5X5X5X5X5X5X5X5X5X5X5X5X5X5X5X5X5X5XU.U.U.U.U.U.U.U.5X5X5X5X5X5X5X5XU.U.U.L.I.I.I.J.n.b.n.c.4 4 4 4 ",
"D.D.D.D.J.K.I.I.U.U.U.U.I.I.I.I.I.I.I.I.I.I.I.I.| A I L P P P P L U P U P U H R I.I.I.I.I.I.I.I.I.I.I.I.I.I.I.I.D.D.D.D.m.m.m.m.",
"F.D.H.F.J.K.I.I.U.U.U.U.I.I.I.I.I.I.I.I.I.I.I.I.F o % 7 % # # % # # # % % # # u I.I.I.I.I.I.I.I.I.I.I.I.I.I.I.P.D.D.D.F.V.m.m.m.",
"D.F.D.F.P.I.I.I.U.U.U.U.I.I.I.I.I.I.I.I.I.I.I.I.T # * & & ; = & * & & * * * * p I.I.I.I.I.I.I.I.I.I.I.I.I.I.I.K.D.D.D.D.V.m.m.m.",
"F.F.F.H.I.I.I.I.U.L.U.I.I.I.I.I.I.I.I.I.I.I.I.I.K % % X % 7 7 % % 7 % 7 % 7 % 0 I.I.I.I.I.I.I.U.I.I.I.P.P.P.I.J.D.D.D.F.m.m.m.m.",
"L.L.L.U.I.J.I.I.F.F.D.F.K.I.I.I.I.I.I.I.] A U F Y.(.Q.(.(./.(.(./.(./././.(.(.Q.I I I ' L.U.U.L.I.I.I.P.H.D.D.D.I.P.I.J.V.m.m.m.",
"U.U.U.U.I.I.I.P.F.D.D.F.K.P.I.I.I.I.I.I.L @ + # ~.rX8XqXqX0XqXqX0XqXqX0XqXqXqX<X, $ % > U.U.U.U.I.I.I.P.H.D.D.F.I.I.I.P.m.m.m.m.",
"U.U.U.L.I.I.I.J.F.D.D.F.P.I.I.I.I.I.I.I.) O & & W.qX-X;X2X9X2X;X;X;X;X;X2X;X2X$Xp & & g L.L.U.L.I.I.I.P.D.D.F.F.K.P.I.P.V.m.m.m.",
"U.U.U.L.I.P.K.K.F.D.D.D.J.I.P.P.P.P.K.I.I # & % W.qX7X9X;X9X9X<X2X7X9X9X8X2X0X:X0 8 & i U.U.L.L.I.P.U.K.H.H.F.F.P.P.I.J.V.m.m.m.",
"I.I.I.I.H.D.H.B.B.B.B.D.F.D.D.F.| F R G Y.~./.Q.l.i.z.k.z.k.u.z.z.z.d.z. X>X+X X+.....+.K U R ` U.U.U.U.K.P.I.J.D.D.D.D.m.m.m.m.",
"I.I.I.P.H.D.D.B.N.B.N.D.F.F.D.D.L o . # ).rXeXqXd.7.0.0.0.0.0.0.7.r.q.q.|.OXoX`.:.%.;.@.8 . . * U.U.U.U.I.I.P.P.D.D.D.D.V.m.m.V.",
"I.I.I.P.D.D.F.B.N.N.N.D.D.D.D.D.H % 0 # ).9X<X9Xh.r.a.a.a.r.a.a.p.a.7.s. X|.OX].;.=.=.#.e & % h U.U.U.U.I.I.I.I.F.D.D.D.V.m.m.m.",
"P.P.I.J.D.F.F.B.B.B.B.D.H.H.D.H.U * > = XX8XqX-Xd.0.f.0.a.a.a.a.y.d.f.h.'.XX}.'.:.=.=.#.w 8 # p U.U.U.L.I.I.I.I.D.D.D.D.m.m.m.m.",
"F.F.D.H.D.D.D.H.J.I.J.I.R > h y E.1X&X1X*XOX_.*Xd.5.a.a.0.7.r.7.%X2X<X,X,.*.>.>.=.=.=.#.q 8 % f I.I.I.I.G.H.D.G.D.D.F.D.v.v.v.b.",
"D.F.D.D.D.D.D.D.I.I.I.I.P # $ $ ).qX2X2X%X}.XXXXd.r.s.a.a.s.a.a.,X0X2X1X;.=.=.%.%.=.=.=.8 & # f I.I.I.I.H.D.D.D.D.D.D.S.v.v.v.v.",
"F.D.D.D.D.D.D.H.I.I.I.K.) . 9 7 Q.wX<X0X%XoXOXoXg.5.f.w.0.0.w.a.1X9X9X2X&.;.#.$.*.*.*.O.& & O y I.P.I.I.D.D.D.D.D.D.H.D.b.v.v.v.",
"H.D.D.D.D.D.D.D.J.P.P.J.K + & 8 /.qX2X2X>X}..X|.h.t.g.a.s.t.a.t.&X2X<X:X,.=.-.-.=.=.=.=.e e 7 M P.K.I.J.H.D.D.D.F.D.F.D.b.v.b.v.",
"D.D.D.D.N.B.N.Z.D.D.F.H.E # ; 7 W.qX2X8Xj.f.r.s.=X2X<X2X{.`.`.oXXXOX|.}..X`.].'.:.=.=.=.*.#.#.#.d j p G S.D.D.D.D.D.D.D.b.v.v.v.",
"D.D.D.D.N.N.N.B.D.D.D.H.T 7 7 % (.qX9X<Xj.5.a.r.&X0X9X2X%X+XOXOXXXoXoXXXoXoXoX`.>.%.=.=.*.*.*.=.7 % # < D.D.H.D.D.D.D.D.b.v.v.b.",
"D.H.D.D.B.B.N.B.D.D.D.D.P . # = /.qX6X0Xh.q.s.6.&X0X0X3X%XXX|..XoXOXoXOXOXOXOX].-.-.=.=.=.=.;.#.q & % < D.G.D.D.F.F.F.D.b.v.b.v.",
"S.D.S.D.B.N.N.B.S.D.D.D.R = a w /.2X2X1Xu.t.t.y.=X1X2X1XXX[..X{..X.X.XoX]..X.X@X>.O.@.@.=.=.%.%.q 0 7 a S.G.S.D.D.D.D.S.v.v.v.v.",
"n.n.v.n.N.N.N.N.} # s , R.2X$X;Xx.t.t.i.=X2X2X:Xx.u.y.j.f.f.p.d.a.g.a.a.a.p.a.5./ C ^ ~ #.*.*.*.q & & < B.B.N.N.v.v.v.v.5 4 4 4 ",
"v.v.v.v.N.N.N.N.P # % $ /.qX9X2Xz.q.q.7.&XwX;X0Xh.6.6.0.5.5.a.s.a.a.0.a.a.r.r.5.m l n V @.=.=.%.q & $ < N.N.N.N.v.v.v.v.4 4 4 4 ",
"v.v.v.v.N.N.N.B.P % * $ W.8X7X9Xu.a.8.s.,XqX<X3Xx.7.q.g.0.a.s.s.a.a.0.a.0.0.f.5.^ c b N %.=.;.o.q & % < N.N.N.N.v.v.v.v.4 4 4 4 ",
"v.v.v.v.N.N.N.N.U # & w #XqX<X9Xh.0.t.a.=X2X9X<Xx.8.g.w.a.a.a.7.0.a.0.a.0.0.a.7.C l c N %.=.=.*.q w 8 < N.N.V.N.v.v.v.v.4 4 4 4 ",
"4 4 4 4 v.v.b.b.T # & & /.0X2X2Xu.0.a.w._.+X|.*Xd.6.f.0.s.0.7.a.0.a.0.a.0.0.s.5.C l c l %.=.=.=.%.O.#.$.a s p G 4 4 4 4 4 4 4 4 ",
"4 4 4 4 v.v.v.v.T X * & /.qX2X9Xx.w.s.8.'.oX_..Xx.r.w.0.s.7.a.0.0.s.a.a.a.s.a.0.Z z m V %.-.=.=.=.;.*.@.- % . = 5 4 4 4 4 4 4 4 ",
"4 4 3 4 v.v.v.v.T X * % /.qX2X9Xu.w.p.r.}.OXXX+Xd.r.0.0.s.0.0.0.0.a.0.a.0.0.0.5.m z v W #.*.%.=.=.*.-.@.e 0 % j 4 3 4 4 4 4 4 3 ",
"5 5 5 6 v.n.n.n.T X * & #XqX2X2Xk.8.r.i.'.].}.'.s.a.0.a.s.a.s.a.0.s.0.a.a.0.a.0.m z W ^ o.@.$.%.%.$.%.[ e 8 % p 5 5 4 5 5 5 6 4 ",
"4X4X5XI.K.U.K.K.T X * % /.qX2X2X|.}.+X`.2.=.;.1.q.0.s.0.s.0.0.0.0.a.0.a.0.0.s.5.Q l l t ! V V V N N V ! = % & f 4X4X4X4X4X4X4X4X",
"5X5X5X5XU.U.U.U.T # * % /.qX2X9X*X[.XXOX2.%.=.*.6.w.0.s.7.0.a.0.a.a.0.0.a.0.a.7.C z c x b b n m n m b m % * % d 5X5X5X5X4X5X5X4X",
"5X5X5X4XU.U.U.U.T X * & /.qX2X2X%X|.|.OX,.%.%.%.9.w.0.s.0.f.a.a.s.a.s.s.a.0.f.0.m z v n z z n v z x z l & * # d 5X5X5X5X5X5X4X5X",
"5X5X5X5XU.U.U.U.T % * % /.qX2X9X{.]._.}.<.=.=.=.e.w.6.6.5.0.5.8.5.7.5.5.5.5.7.6./ V m W N V v V v c z N 7 8 % p 5X5X5X4X5X5X5X5X",
"I.I.I.I.I.K.I.I.P X 8 & !.0X-X0X3.%.;.;.;.=.=.#.( B m / B c C C C C C C / V ^ C =.#.O.%.%.=.=.O.V c V b 8 & # j I.I.I.I.P.I.I.I.",
"I.I.I.I.I.I.I.I.P % & + !.0X7X8X4.%.;.=.=.%.=.-.( z l b b l m v b v z z z v b b *.*.*.-.=.=.=.*.Q l v l 0 & 7 j I.I.I.I.P.I.I.I.",
"I.I.I.I.I.I.I.I.P % 7 $ /.qX0X2X2.%.*.=.*.=.-.*.! z z b z l v z l z z l c l z c *.*.=.=.=.*.*.%.m c b b # # # p I.I.I.I.I.I.I.I.",
"I.I.I.I.I.I.I.K.` & j , T.2X$X;X2.=.=.-.#.@.%.@.W W W m W m W b W m m m m W m W @.$.$.#.=.=.;.*.b e b m , 1 j D I.I.I.I.I.I.I.I.",
"I.I.I.I.I.I.I.I.I.K.P.I.Y * a : O.%.;.O.( N V N O.@.#.#.#.*.*.*.#.*.#.#.#.#.#.#.V V V ~ @.%.=.@.k 0 # u U.U.L.L.I.U.U.U.I.I.I.I.",
"I.I.I.I.I.I.I.I.I.I.I.I.H X % = ..=.=.%.( v n n #.%.=.=.=.=.=.=.=.=.=.=.=.=.=.=.W v n N $.=.*.*.q % % u U.U.U.L.U.U.U.U.I.I.I.I.",
"I.I.I.I.I.I.I.I.I.I.I.I.P % 7 7 ..%.=.%.~ r n l X.=.=.*.=.=.*.=.=.=.=.=.#.=.=.#.V v z z $.=.=.O.e & & f U.U.U.U.U.U.U.U.I.I.I.I.",
"I.I.I.I.I.I.I.I.I.I.I.I.P . 0 & ..=.=.=.~ r b b X.=.=.*.=.=.=.=.=.=.=.=.=.=.=.%.N b b N %.*.*.#.e 7 % g L.U.U.L.U.U.U.I.I.I.I.I.",
"I.I.I.I.G.G.F.H.I.I.I.I.L O $ 9 ..-.=.;.~ t n r ..%.=.=.%.=.=.=.=.%.=.=.=.=.%.#.Q z b W m b ^ b q 9 + < U.U.U.L.I.I.I.P.F.D.F.D.",
"I.I.I.P.G.G.F.G.J.I.I.I.) # 8 q [ %.%.%.~ c m n X.=.=.=.=.=.=.=.=.=.%.=.=.=.;.#.m c z z c r b e e 7 # d U.U.U.U.I.I.I.P.F.F.D.D.",
"I.I.I.I.G.D.F.F.I.I.I.I.I # & #  .-.=.=.~ c n m X.=.=.*.=.=.=.=.=.=.=.*.=.=.=.*.b l b m c c m c - % % p U.U.L.L.I.I.I.I.D.D.D.D.",
"I.J.P.I.H.D.H.H.J.I.I.I.Y > g i X.#.O.o.~ N b b O.=.=.=.=.=.=.-.=.=.=.=.=.=.=.*.W v ! v l l v e d M > S U.L.U.L.I.I.I.U.F.D.D.D.",
"G.G.H.H.U.L.L.U.I.I.I.P.F.G.H.F.T q w l e l z v X.%.=.=.=.%.%.=.=.=.=.=.=.=.=.%.V c c l w q 7 p B.B.B.Z.P.I.I.I.H.G.D.F.D.D.D.D.",
"D.D.D.F.L.U.U.U.I.I.I.I.D.D.D.D.I % O 7 n v m B O.=.=.*.=.=.=.=.=.%.=.=.=.=.=.#.b c c l & & & p N.N.N.B.I.I.I.P.F.D.D.D.D.D.D.D.",
"D.D.D.H.L.U.U.U.I.I.I.I.F.D.F.F.G # 2 8 e l t z X.%.=.*.=.=.=.=.=.%.*.;.=.=.*.&.W b n l 8 & # p Z.N.N.B.P.I.I.I.F.D.D.D.D.D.D.D.",
"D.D.D.D.I.L.L.U.I.P.I.J.D.D.D.D.' i 1 0 x m l v  .#.=.*.#.#.O.*.%.#.*.#.%.#.#.O.b r r c y j 1 G Z.A.N.Z.J.I.I.P.F.D.D.D.D.D.D.D.",
"N.N.B.Z.H.H.H.F.D.G.F.D.B.B.N.B.D.D.D.D.J $ & q q q w w q w q w 8 q 8 q q q 8 q w 7 $ f B.B.B.B.D.D.D.S.G.H.H.D.B.B.B.B.N.B.B.N.",
"N.N.N.B.D.D.D.D.D.D.D.D.N.B.B.B.D.D.D.D.) # q 7 & & 7 & 7 8 8 & 8 & 8 & 7 7 & 8 & 9 & M N.N.B.N.S.D.D.D.D.D.G.D.B.B.N.N.N.N.N.B.",
"N.N.N.N.D.D.D.D.D.D.D.D.B.B.N.B.D.D.D.D.F # # # % # % % % & % % X % # % # % % % + # & ; B.N.N.B.G.H.F.D.D.G.D.S.B.N.N.B.N.N.N.B.",
"B.B.B.B.S.G.D.D.D.D.G.G.N.N.B.B.D.D.D.D.' > S u j p d p p s p p p p p j s p p p j g p S B.N.N.B.D.S.D.D.D.G.S.D.B.N.N.B.N.B.N.N.",
"D.S.D.D.D.D.D.D.N.N.N.Z.N.N.N.B.B.B.B.B.B.B.B.B.B.C.B.N.n.b.b.b.4 4 4 4 b.n.b.n.N.N.N.N.N.N.N.B.B.B.B.B.B.B.B.B.B.N.N.N.B.N.A.N.",
"D.D.D.D.D.D.D.D.N.N.N.N.N.N.B.N.N.B.N.B.B.N.N.N.N.N.N.N.b.c.b.c.4 4 4 4 c.b.c.b.N.N.N.N.N.N.N.N.N.N.N.N.B.N.N.N.B.N.N.N.N.N.N.N.",
"G.D.D.D.G.D.G.D.B.N.B.N.N.N.N.N.N.N.B.B.N.B.B.N.B.N.B.N.b.v.b.c.6 4 4 4 b.b.b.b.N.N.B.N.B.B.N.N.B.B.N.B.B.B.N.N.B.N.N.N.N.N.A.A.",
"S.D.D.S.D.S.D.G.N.N.N.N.B.B.B.N.B.N.N.B.N.N.N.N.N.N.B.V.v.c.c.c.4 4 4 4 c.c.c.b.N.N.N.N.N.N.N.N.N.N.N.N.N.N.N.N.N.N.N.M.N.N.N.N.",
"4 4 5 6 v.v.v.v.n.v.v.v.m.M.m.M.m.m.m.m.n.b.v.v.v.v.n.v.4 4 4 4 4 4 4 4 4 4 4 4 4 4 4 4 v.n.v.n.v.n.n.n.5 4 5 4 5 5 4 5 4 4 5 4 ",
"4 4 3 4 v.v.v.v.b.v.v.v.M.M.m.M.m.m.m.m.v.v.v.b.v.v.v.c.4 4 4 5 3 4 3 4 4 4 4 4 4 4 4 5 v.v.v.v.n.6 n.v.4 4 3 4 3 3 4 3 3 3 4 4 ",
"4 4 4 4 v.v.v.v.v.v.v.v.m.M.m.m.m.m.m.m.b.v.v.v.v.v.v.v.4 4 4 4 4 4 3 4 4 4 4 4 4 4 4 5 v.v.v.v.v.v.c.c.4 4 3 4 4 4 4 4 4 4 4 4 ",
"4 4 4 4 v.b.v.v.b.v.v.v.m.m.m.M.m.m.m.m.b.v.v.v.b.v.v.v.4 3 4 4 3 4 4 4 4 4 4 4 4 4 4 6 6 v.v.v.v.n.v.v.4 4 4 4 4 4 4 3 4 4 3 4 "
};
