/* XPM */
static char *elil1741120757[] = {
/* columns rows colors chars-per-pixel */
"64 64 158 2 ",
"   c #2A2E2E",
".  c #2C302F",
"X  c #36322F",
"o  c #3D362C",
"O  c #3F382E",
"+  c #2E2E30",
"@  c #2E3231",
"#  c #333534",
"$  c #393533",
"%  c #353837",
"&  c #3C3A35",
"*  c #353739",
"=  c #36393A",
"-  c #3A3B3C",
";  c #4F3416",
":  c #4D351B",
">  c #4D3B1C",
",  c #523615",
"<  c #583714",
"1  c #553916",
"2  c #5B3A16",
"3  c #53361C",
"4  c #553B1D",
"5  c #593C1C",
"6  c #613E1B",
"7  c #4C3424",
"8  c #4D3B24",
"9  c #41372E",
"0  c #4D352A",
"q  c #40392F",
"w  c #4E3C2A",
"e  c #553723",
"r  c #5A3625",
"t  c #553B22",
"y  c #593E22",
"u  c #51372A",
"i  c #523D2A",
"p  c #5B3F29",
"a  c #443C32",
"s  c #4D3C32",
"d  c #423C3B",
"f  c #493D39",
"g  c #623E23",
"h  c #3D413B",
"j  c #4F401F",
"k  c #5C4416",
"l  c #55411C",
"z  c #5B431D",
"x  c #64431A",
"c  c #4C442F",
"v  c #564223",
"b  c #5B4324",
"n  c #5D4A23",
"m  c #53422A",
"M  c #5C452A",
"N  c #57492C",
"B  c #5E492A",
"V  c #464134",
"C  c #4C4234",
"Z  c #42413D",
"A  c #4B433A",
"S  c #544434",
"D  c #5A4532",
"F  c #5D4B31",
"G  c #52433A",
"H  c #5E5036",
"J  c #614526",
"K  c #644B26",
"L  c #694C26",
"P  c #614629",
"I  c #664C2A",
"U  c #694E2C",
"Y  c #675027",
"T  c #66512B",
"R  c #6B512E",
"E  c #745527",
"W  c #71542F",
"Q  c #7A572C",
"!  c #74592E",
"~  c #7D5B2D",
"^  c #624D34",
"/  c #694F31",
"(  c #655132",
")  c #6C5332",
"_  c #6E5835",
"`  c #655239",
"'  c #6B553C",
"]  c #6E5B3B",
"[  c #735534",
"{  c #795635",
"}  c #765936",
"|  c #7C5B35",
" . c #745738",
".. c #795739",
"X. c #755A3A",
"o. c #7B5C3A",
"O. c #7F642D",
"+. c #7D6235",
"@. c #7E613A",
"#. c #333542",
"$. c #3E3D42",
"%. c #3C3F52",
"&. c #413E44",
"*. c #413E49",
"=. c #3D4344",
"-. c #3F4941",
";. c #3E4349",
":. c #444344",
">. c #4A4341",
",. c #4D4946",
"<. c #40424B",
"1. c #47484A",
"2. c #494B4A",
"3. c #534B41",
"4. c #424950",
"5. c #5C5E5D",
"6. c #6E5A41",
"7. c #6A5A4D",
"8. c #715740",
"9. c #755C42",
"0. c #7A5F42",
"q. c #645D53",
"w. c #605C5A",
"e. c #6A5E59",
"r. c #5D605F",
"t. c #7A6144",
"y. c #7C6249",
"u. c #676153",
"i. c #696155",
"p. c #65625F",
"a. c #6B645A",
"s. c #6E685E",
"d. c #726555",
"f. c #70655B",
"g. c #73695F",
"h. c #5E5E61",
"j. c #5C6061",
"k. c #5F666D",
"l. c #5E6A6A",
"z. c #636463",
"x. c #696563",
"c. c #656867",
"v. c #6D6966",
"b. c #64666A",
"n. c #6C6669",
"m. c #666A6A",
"M. c #6A6C6C",
"N. c #706A6A",
"B. c #6C706F",
"V. c #6E7171",
"C. c #815B2F",
"Z. c #815E34",
"A. c #815E39",
"S. c #84632B",
"D. c #816036",
"F. c #82613A",
"G. c #8A673D",
"H. c #8A6838",
/* pixels */
"b M y J [  .[ { / [ [ R U I K U b B v P [ ..{ ..Z.A.A.Z.W R R W n b y J } ..} ..} { { } | Z.A.Z.J P y J } ..[ { R ) ) R R K T T ",
"y J y J } X.[ ..U U R R U I U U v b b J  .o...A.A.A.A.{ W T T R b b b P } ..| ..{ } } | | A.F.A.b P y J  .o. ...R R R R U U I U ",
"b b b J [ X.} } R R R R T K K U b v v J  .X...A.F.F.A...} R R ) y b b P ..o.} o. .} } ..| A.A.A.b M y J  .X.} } R R R U I K K I ",
"b M y J [  .[ } R ) R R U K U U b P v J [ X.{ } A.| | { { ) ) [ v P y J  .} X.}  .[ [ } ..D.| | b P y b  .} } } [ ) [ R L I L I ",
"b b b b R _ U [ _ } } ) R K K U b P b b ) [ R _ R L T U R ) / U b M y n ) _ ) [ )  .) [ { | | ! I M 5 v ) [ R [ [ [ { / U U L U ",
"b P v b U ) U R } } } ) ) U K K b B b b ) ) T R L L K K U U / / b b b b ) ) U U ) ) /  .[ } } { B M v b ) [ R R [ { { [ W U U U ",
"b M v b ) ) U R } +.[ _ ( U U I b b b b ) _ T _ T K T T ) ) ) ' b M b b ) _ ) ) ) / / _ [ [ } } b M v b ) _ R R ....{ [ / U L U ",
"v M v n ) _ R ) _ _ [ ) R U K I b b b b _ _ ) ) U U K U ) ) / / v n b n ` [ R [ ) ) / _ [ } X. .B n v b ) ] R ) } } { { U L U L ",
"> > ; b  .0.o.o.` ( ) _ U K ( I 8 w 8 b [ @.| Z.I U ) b  .U ) ) c 8 8 4 @.o.F.Z.0.) X.X.U )  .T > 0 0 p R S.D.o.U U W ) Y Y T Y ",
"t t ; 5 Q D.Z.~ } R R W K U U J r t ; z W Z.~ ~ U U T J } U ) R 4 , 4 5 A.Z.F.Z.| [ ..o.U R [ R z 3 e y E S.Z.{ { T R W K Y Y J ",
"e r , g | H.S.S.W U U R U U R U 5 2 < 6 | G.F.D.K J I J [ ) } ) 2 < 2 2 A...A.| o...F.o.U U R R 5 , 3 g ~ H.H.o.R L L R T R W L ",
"e y 3 b  .o. .X.' ` ' ' ^ F ^ B 3 2 1 y [ 0.X.X.` ^ ` ` ( ( ` ^ 5 1 z 4 0.0.y.0.8.' 8.8.' ' ' ` 5 4 3 v ) @.t.X.' ` ' ' ^ F ^ B ",
"l n m c S A V ,.a.a.s.q.f o O O m M m c C C V A a.a.a.q.V O a O n t M c d.a.v.a.G A f 3.q.v.a.a.M m m m C A A V a.a.v.q.C o o & ",
"l n N c d - #.;.c.c.B.r.- . @ % t F D C V & = =.M.c.M.c.* + @ @ b m m C s.x.M.k.&.&.* :.x.V.c.c.D M M c & $.- - c.M.M.j.$.  @ * ",
"5 P M C C h =.1.j.z.M.r.h # = - 2 b N C A :.=.4.c.z.c.c.# # * # n b M S s.x.M.k.>.:.- :.z.M.z.x.p n v c f *.=.h z.b.M.h.$.+ * - ",
"g P M i c h & Z x.x.v.w.Z X $ & 6 J b t C Z - :.v.p.x.v.$ & & # x 2 b m a.x.m.b.d A d f p.v.p.v.P x k l A *.:.h n.n.v.w.Z # $ $ ",
"e y 3 4 U U K U T K K T ( ) ) I 4 4 z 1 ) Y T T / ) / U U I P I e v 3 y T R T Y K K I U / ' ) ) 3 3 5 ; / I ^ I ) ) ) / / I I P ",
"4 t 3 5 U U K U T T T R ) ` ` ( l 4 4 , R K T K [ ) ) / U U I I y t 3 y U T K K U U U U ) / ) / y 5 5 3 ) I U U ) ' ) / / / ^ I ",
"e t 4 4 U U K Y Y K n T ) ) ) T 4 4 4 ; R L U K [ ) W / / U U I t y , 4 U T K L L K K I U / U ^ 4 4 4 3 R I U K )  ./ / / / I / ",
"3 y 3 4 K T K U Y Y Y Y ) } R R 4 4 4 1 [ R R T / / / / U U I I t t 3 4 U [ L U T L I U R ) [ W y , 4 ; W U W L ) / ) / / I I I ",
"3 y 3 4 U U K U T _ T ) X.o.| | y 3 t 2 | } | | / U / I U U P U 4 v , b [ ..| | R R Y } o.@.o.o.y 4 y 5 o.} | | U U U I I I I P ",
"t y 3 4 I U K U ) ) R +.+.D.| | t t 5 t o.@.F.| I / I I I P / U 4 4 1 z X.G.Z.A.} R T } o.F.F.A.t 3 4 5 @.@.A.Z.K I L I I I I I ",
"t y 3 4 U R K T T T Y R } @.Z.Z.t t t 5 A.A.F.Z.I I U I / I / L l 4 , 5 { F.D.Z.W R K R | A.| Z.t > , 1 | | D.C.K K K I L L L L ",
"t 3 3 4 I T K K ) ) R } @.D.D.D.t 7 3 5 ..Z.Z.C.I / I / I U / / 4 3 3 6 | A.Z.| _ R R ! Z.Z.Z.~ v t y 5 D.D.H.C.K U K L I L I I ",
"t t t 4 ^ U I I ) R T W | D.C.C.t i 3 5 I / I U .. ... .L L / L 4 4 4 2 @.| F.Z.} ..}  .[ ) [ _ 4 1 5 4 @.D.D.A.) ) ) U U U U U ",
"e e t 4 I U I I R U T W | D.D.C.t p 3 4 I / I U ..[ ..../ L / L 4 > 4 1 o.D.F.Z.} } | [ [ ) R ) 5 4 4 2 o.o.F.Z.) ) ) ) / U U / ",
"e t 3 4 I / K U R U R W | D.Z.O.e t : 3 I / K U ..{ ....U L / I l 4 4 5 A.A.F.A.|  .} [ R R R ) t 4 4 2 @.o.D.| R ) ) ) / U I U ",
"t e e 4 I U I U R [ W W | | | | t r 3 t I ) U U | | ..} U L / I y , v 5 o...A.Z.X.{ } } [ U R R 5 1 y 2 o.o.Z.| ) [ ) U / I I / ",
"t e 3 4 U / I I [ [ { } } | } Q p p 3 y / ) R R Z.| | | U U / I t e 5 3 ....Z.{ } X.} } R U U T r 3 t 5 o...A.{ ) ) ) R U ^ U U ",
"e t e 4 I U K U } } } | } { { [ y p 3 y / _ R ) Z.| @.| U I / I y 3 3 1 ..| ..Q o.} ..} R U U K t 4 t 2 X.| | { ) ) ) ) U I I U ",
"t i t 4 ^ / I I | } | X.} } [ } i p t y / _ ) [ D.~ D.o.U L W I y : e 1 ..{ Z.{ } o.} [ R U K U r 3 r 1 } ....W ) ) ) ) / U I ( ",
"e t 4 4 U U I I { | |  .} } } X.r y 3 t / [ U ) D.D.D.+.R L / I t t r 5 ..{ { { } } } [ U I I U y e 5 3 { { ..{ / ) ) ( U I U U ",
"4 b 4 b I U K U } } } X.W ' ) / y 5 3 4 I ) I U @.F.o.| [ W ) / y y , b [ o...{ D.Z.Z.| U K I B 4 4 , v [ o.....} } } [ U I I U ",
", 4 3 4 I U I U ..} ..} / ) ) / 4 t 3 4 I U L I | D.D.| [ W / / 4 4 : 5 [ 0.} ..Z.| A.| U K U B y 4 1 y [ 0...{ [ | } [ U U K U ",
"3 y 3 4 I I K U | { | } [ / _ ) 4 y 1 4 I I I I | D.Z.| W / / W 3 4 , b  .o.| X.Z.Z.A.| U L R I 4 4 3 y [ X.} } } } ..[ U K U U ",
", b 3 t I U I T } ! o.../ / ) T 5 b 4 t I U I U ~ D.A...{ W [ [ y v 4 b )  .[ } D.| A.| R L R K 4 y 4 b [  .} } }  .} [ R U K T ",
"v P y b U U I U | | o.o.R L R U y J t y I U P U D.D.F.A.{ [ {  .b b y b )  .) [ Z.| Z.A.R U ) U b b y n ) _ [ [ } } } [ U U I U ",
"M P y b U U b U @.+.@.+.R K U K v P b b U U I U Z.D.F.A.{ { ....v b b b ) [ U R Z.Z.A.| W R ` R v B b b ) ) U R } } } [ U U K U ",
"b P y J U ( K K +.+.@.@.L K U K y P J y I I I U Z.A.A.A.{ { ..A.b M n v ) _ R ) Z.| D.Z.R R _ / b n v b ) ) U ) } } } [ R K U K ",
"y J 5 y U ( K U | } @.@.Y J T T y J J b I I J U C.Z.A.Z...{ ....v M v b ) [ R ) Z.| A.| W R _ ) v M v B ) _ R _ } { X.[ R K U T ",
"y P y y U R K U | Z.D.| _ ) ( _ y J b y I I I U ~ S.@.| U L I / v B b b I I B T @.D.o.A.....| { b y z n K U U I ~ Z.D.Q R K U / ",
"p P y b U U K U ~ D.D.| ) T ( ( b P y J I U I U ~ D.D.| R I I / v b b b U U K T o.@.| | | { { } J J b J L U U K | Z.@.| W L I / ",
"M P p J R U J K D.D.+.| } R T T J P b b I U J U @.D.@.| W L I / b b b b U ( T R | @.| | | } { { J J b J I U I K | +.D.} R I I / ",
"p P y y U T K K ~ @.Z.@.! W ) [ y P y y I U K U ! | | } U I L / 5 b y z T T K ( | | o.D.| | | | b y y b I U I I | | | } R I U U ",
"t y 4 y I U J T Z.| D.| | | } | 4 y 4 t I U I U R [ _ ) L L U U 4 y 4 v U U K K D.| | D.@.| o.o.t 5 t y P I U I R [ [ [ R L U / ",
": y 3 5 I U K L | +.| D.@.Z.+.+.4 4 3 4 I U I U R ) R R / U U U , y > 4 K T I U +.S.D.@.D.D.F.o.3 3 4 y P / / I R R R / L U L U ",
"t t 3 4 U U K T | | | +.+.Z.D.Z.4 5 > 4 I U I U ` ) / / / U I L 4 4 > 4 I R K T ~ +.+.D.D.D.D.D.e 1 4 y P I I I _ ( / / U U U U ",
"t y t 5 I U K Y @.| Z.D.| D.Z.| y y , t I U K I ) ) [ / / L L I 4 v , y I ` T T ~ | ~ D.@.| F.@.t t t y M I ^ I _ _ [ / U U U g ",
", 1 t i a d =.<.x.v.x.p.& $ X $ , 1 t w V h =.;.M.n.n.5.&.$ $ $ 1 4 : m u.M.b.l.Z d h ,.5.v.v.p.1 1 > w a & h ;.p.v.c.p.$ o X & ",
"2 t i w f d $.<.j.M.c.z.- # # - 5 r e s V Z ;.;.b.b.n.5.*.* & - g p e S i.M.k.k.1.=.- 2.r.M.v.z.y t t C f d $.<.b.M.c.z.- % # * ",
"e e u s f d - $.z.M.M.l.% # . % e e u s f d &.$.n.n.V.h.$.+ # # e e 7 G e.N.M.m.Z % % 1.5.M.M.z.i e w s f d $.$.z.m.c.z.% * # # ",
"t t t u D G G G a.s.a.i.q q o q y e e i s C A A f.d.v.q.f 9 9 a e t e D 7.f.a.s.A V V G u.f.a.p.y t u i s C d V i.a.u.i.a a O O ",
"b z n b ) ] ] ] ` ' ` ] M ^ F F z z b b B H ^ F t.X.t.t._ ) 8. .J K z b ( ' H H @.@.] 9.X.9.9.9.J b v b B H H H t.t.t.y.B I N F ",
"n z k K ! @.+.+.) U K [ K [ R U z z z n Y R R U D.Q +.D...o.F...z J z z T U K Y +.F.F.@.} { } ..x z z K Y T T T C.Z.| F.L U U / ",
"v t l K ! +.D.~ { R U } J R U K M m b b K T L L D.~ +.D.~ { { { v b v z U U L T ~ ! @.| | { ..o.b y 4 b K T Y Y C.C.Q D.L T I I ",
"D M m P } +.S.~ ) ) T X.b ( U U P N v P U U R I O.~ D.@.{ } o.X.M B M B U I L R +.+.+.+.X.X. . .^ M y P I T U U D.D.| o.K R ^ B ",
"M b b K } A.Z.H.} } X.[ U I L U b P y J [ ..[ { ' / / R ..A.Z.Z.v M J J [ ..[ ..| } } | Z.A.A.| b P y J  .} [ { [ ) ) T ) ( I I ",
"m b b J ..A.Z.Z.} X.} [ U I K U b P b P  .X.| ..) / / [ | A.Z.Z.b P y P [ ..{ ..} { [ { Z.| Z.{ J P y J  .X.} ..) R T ( U I T B ",
"v n n J o.F.Z.Z.} X.} [ ) K K U b J b P  .X.} o.) / / [ ..F.D.Z.v b b P  .X.| } } X.} { o.F.A.Z.b M b P  .o.} | T ) T T ( T U I ",
"N M b J | F.Z.D.} | { [ U U K K b b b P [ ..} } ) ) ) [ | Z.| | b P b P [  .} X. . .} } A.F.o.o.y J y P [ X.[ } ) ) ) ) T I I ( ",
"v n v K | A.Z.Z.| } } _ U U I U b B v b ) [ U [  .} [ } } | | | b b b J ) [ U [ ) ) / [ } | | W b M b J ) _ U [  . . ./ / U I U ",
"N b m K | F.Z.A. ...} [ U U I K b B b b ) ) U R X.}  .} } } { [ B M b b ) _ U U / / / [ [ } { { M M b b R ) U ) } X.X. ./ I P U ",
"v b b J o.F.Z.Z.} } | [ U I K K b b v M ) ) R ) | } | } } } } [ b B v v ) _ R ) ) ) ) ) X.o.| } v M b B ) ) R )  .X...[ U I I U ",
"M B z J ..F.Z.A.} } } [ U I I T n B m n ) [ R ) { { { | X.} } X.b M n J ` [ R ) ) / / ) } X.} } v b n B ) ) ) [ [  ...[ R I U / "
};
