/* XPM */
static char *_923448bf60b4b47f7cc0edff31722aeSke6vKZwL6NxFHqk[] = {
/* columns rows colors chars-per-pixel */
"64 64 176 2 ",
"   c #010101",
".  c #080007",
"X  c #05010A",
"o  c #0A000D",
"O  c #0D0D0D",
"+  c #081607",
"@  c #0E160E",
"#  c #0D1A0B",
"$  c #11160F",
"%  c #111A0D",
"&  c #0B0011",
"*  c #16001C",
"=  c #160E1B",
"-  c #1C0E1D",
";  c #0F1511",
":  c #0F1910",
">  c #151515",
",  c #191316",
"<  c #131A12",
"1  c #191A15",
"2  c #161319",
"3  c #19131A",
"4  c #171B1A",
"5  c #191919",
"6  c #11210F",
"7  c #132412",
"8  c #172816",
"9  c #1B231D",
"0  c #1C0224",
"q  c #1D0E20",
"w  c #1D0029",
"e  c #1D1321",
"r  c #220327",
"t  c #220D23",
"y  c #22012C",
"u  c #211626",
"i  c #211D25",
"p  c #25172B",
"a  c #29132E",
"s  c #27192C",
"d  c #2A1C2E",
"f  c #250033",
"g  c #2D0D36",
"h  c #2F0B39",
"j  c #300A3A",
"k  c #2D1633",
"l  c #2E1933",
"z  c #2E123A",
"x  c #311936",
"c  c #34113C",
"v  c #321839",
"b  c #212121",
"n  c #2C2C2C",
"m  c #34203B",
"M  c #9327B1",
"N  c #9D20B8",
"B  c #9A2FB9",
"V  c #A226BD",
"C  c #A428BF",
"Z  c #9F78A7",
"A  c #A67FAE",
"S  c #AA7DB6",
"D  c #9E1BC1",
"F  c #A813C5",
"G  c #A51CC3",
"H  c #A516C8",
"J  c #AC13CC",
"K  c #A719C9",
"L  c #AE15D3",
"P  c #AF18D7",
"I  c #BB14DE",
"U  c #BD18DE",
"Y  c #B520DE",
"T  c #BC0EE5",
"R  c #BD08ED",
"E  c #B614E1",
"W  c #BD17E2",
"Q  c #BE19E4",
"!  c #BF17E9",
"~  c #C309E6",
"^  c #C506EE",
"/  c #C802EF",
"(  c #C40AEA",
")  c #C01AE3",
"_  c #C315EA",
"`  c #C502F5",
"'  c #CB01F5",
"]  c #C509F2",
"[  c #C704F8",
"{  c #CE01FC",
"}  c #C90AF8",
"|  c #D300FF",
" . c #B87AC7",
".. c #B877C9",
"X. c #BC7ACB",
"o. c #BA69D0",
"O. c #BC75D1",
"+. c #BF7DD1",
"@. c #C07CCF",
"#. c #C775D7",
"$. c #C27ED1",
"%. c #C87ED7",
"&. c #C676D8",
"*. c #CB75DC",
"=. c #C77CD9",
"-. c #CA7CDB",
";. c #CD6EE2",
":. c #D466EB",
">. c #D56CEE",
",. c #CF70E4",
"<. c #CE79E1",
"1. c #D477E4",
"2. c #D774E8",
"3. c #D976EC",
"4. c #D67EEA",
"5. c #D97DEC",
"6. c #DF6FF7",
"7. c #DC64FB",
"8. c #DF6EFA",
"9. c #D671F2",
"0. c #DB73F3",
"q. c #D77CF1",
"w. c #DD7BF2",
"e. c #DE7BF9",
"r. c #E465FF",
"t. c #EE65FF",
"y. c #E46FFF",
"u. c #EB6DFF",
"i. c #F267FF",
"p. c #F36BFF",
"a. c #FA6AFF",
"s. c #E273F6",
"d. c #E17DF5",
"f. c #E473FD",
"g. c #EB74FF",
"h. c #E57BFC",
"j. c #EA7AFE",
"k. c #F273FF",
"l. c #B083BC",
"z. c #BA86C6",
"x. c #BF81CE",
"c. c #BC88C8",
"v. c #BE89D1",
"b. c #C08CCC",
"n. c #C482D4",
"m. c #C88AD7",
"M. c #C681D9",
"N. c #CB80DF",
"B. c #C68CD8",
"V. c #CA8CD9",
"C. c #CD84E0",
"Z. c #D486EC",
"A. c #D785E9",
"S. c #D883EB",
"D. c #D982EB",
"F. c #D881EA",
"G. c #DC80EF",
"H. c #D984EC",
"J. c #D993E9",
"K. c #DD82F2",
"L. c #DE85F3",
"P. c #DD84F2",
"I. c #DF80F4",
"U. c #DF82F3",
"Y. c #DF88F3",
"T. c #DF8AF2",
"R. c #DC89F5",
"E. c #DD88F0",
"W. c #E081F7",
"Q. c #E382F6",
"!. c #E183F5",
"~. c #E182F8",
"^. c #E487F9",
"/. c #E386F8",
"(. c #EA80FF",
"). c #E28AF8",
/* pixels */
"                > > > > > > > >                                                                 > > > > > > > >               O ",
"                > > 5 5 > > > >                                                                 > > > > > > > >               O ",
"                > > > > > > > >                                                                 > > > > > 5 > >               O ",
"                > > > > > > > >                                                                 > > > > > 5 > >               O ",
"                > > 5 > > > > >                                                                 > > > > > > > >               O ",
"                > > > > > > > >                                                                 > > > > > > > >               O ",
"                > > > > > > > >                                                                 > > > > 5 > > >               O ",
"                > > > > > > > >                                                                 > > > > > > > >               O ",
"                > > > > > > > > > > > > > > > >                                 > > > > > > > > > > > > > > > >               O ",
"                > > > > > > > > > > > > > > > >                                 > > > > > > > > > > > > > > > >               O ",
"                > > > > > > > > > > > > > > > >                                 > > > > > > > > > > > > > > > >               O ",
"                > > > > > > > > > > > > > > > >                                 > > > > > > > > > > > > > > > >               O ",
"                > > > > > > > > > > > > > > > >                                 > > > > > > > > > > > > > > > >               O ",
"                > > > > > > > > > > > > > > > >                                 > > > > > > > > > > > > > > > >               O ",
"                > > > > > > > > > > > > > > > >                                 > > > > > > > > > > > > > > > >               O ",
"                > > > > > > > > > > > > > > > >                                 > > > > > > > > > > > > > > > >               O ",
"> > > > > > > >                 > > > > > > > > > > > > > > > > > > > > > > > > > > > > > > > >                 > 5 > > 5 > > b ",
"> > > > > > > >                 > > > > > > > > > > > > > > > > > > > > > > > > > > > > > > > >                 > 5 > > 5 > > b ",
"> > > > > > > >                 > > > > > > > > > > > > > > > > > > > > > > > > > > > > > > > >                 > 5 > > 5 > > b ",
"> > > > > > > >                 > > > > > > > > > > > > > > > > > > > > > > > > > > > > > > > >                 > 5 > > 5 > > b ",
"> > > > > > > >                 > > > > > > > > > > > > > > > > > > > > > > > > > > > > > > > >                 > 5 > > 5 > > b ",
"> > > > > > > >                 > > > > > > > > > > > > > > > > > > > > > > > > > > > > > > > >                 > 5 > > 5 > > b ",
"> > > > > > > >                 > > > > > > > > > > > > > > > > > > > > > > > > > > > > > 5 > >                 > 5 > > 5 > > b ",
"> > > > > > > >                 > > > > > > > > > > > > > > > > > > > > > > > > > > > > > 5 > >                 > 5 > > 5 > > b ",
"                                > > > > > > > > > > > > > > > > > > > > > > > > > > > > > > > >                               > ",
"                                > > > > > > > > > > > > > > > > > > > > > > > > > > > 5 5 > > >                               > ",
"                                > > > > > > > > > > > > > > > > > > > > > > > > > > > > > > > >                               O ",
"                                > > > > > > > > > > > > > > > > > > > > > > > > > > > > > > > >                               O ",
"                                5 5 5 5 5 5 5 5 > > > > > > > > > > > > > > > > > 5 5 5 5 5 5 >                               > ",
"                                > > > > > > > > > > > > > > > > > > > > > > > > > > > > > > > >                               O ",
"                                > > > > > > > > > > > > > > > > > > > > > > > > > > > > > > > >                               > ",
"y r 0 0 0 0 0 y y y f f f f y y x l x x v x l d 3 2 > > > > 5 3 5 2 > > < > > 3 d l x v v x l l w y f f f f y y y r 0 0 t 0 r c ",
"2.1.-.%.M.%.<.>.V K J L L K G B M.v.+.C.-.%.V.S a 3 $ % < > - t q e > $ < < 2 k l.m.=.-.N.M.B.O.M D H J L J K C 9.<.%.M.%.-.1.2.",
"k.g.h.I.L.~.j.p.W ] { | { [ ] Y e.Z.q.h.h.e.E.X.g e @ # < > - t t e < # 6 : 3 c n.E.s.f.h.e.R.9.P R ` { | ' ] Q p.j.W.L.W.h.j.k.",
"f.s.3.4.4.5.f.t.Q ] { | | { } Q f.q.9.f.f.0.K. .h q $ # < > - e 3 5 $ # 6 : - c $.K.6.y.f.f.h.7.E ` { | | { ] ) i.f.5.4.4.w.s.f.",
"h.d.5.F.F.w.f.i.W ^ { | | { { ! g.h.f.j.g.f.^.@.j q < # % < , 3 , 1 # # 6 < q c M.^.f.g.g.j.(.r.T ` { | | { ^ Q p.f.w.F.F.G.d.h.",
"d.5.F.A.H.K.f.p.I ( ' | | { { _ u.f.y.g.g.s.!.X.j q < # % % > , > < # # 6 < q c n.W.f.u.g.g.j.r.T ' { | | ' ( Q p.h.w.A.A.G.K.d.",
"w.5.4.4.5.w.f.t.U ( ' | | | { _ u.w.0.h.s.0.H. .j q < # % % < > > < # # 6 < - c x.H.0.f.f.f.h.7.T ' { | | ' ( ) p.f.w.4.4.4.w.w.",
"j.j.h.h.h.j.k.i.I ~ / ' { ' ' W j.E.G./.K.H.J.z.g q < % < < < > > 1 # # < > - v b.J.F.I.W.I.).8.I ' ' { { / ~ ) a.k.j.h.h.h.j.j.",
"*.*.#.&.-.*.;.:.V G F J J J J V &.X...$.X. .c.Z a 3 > < < > > , > 1 $ % 1 > 3 k A z. .X.+.X.n.o.N J J J J F G C >.,.*.&.-.&.*.*.",
"k a s s s s k z w y f f f f f y 0 0 0 w w 0 0 * q 3 > > > > 3 3 , , > > > > 3 q * 0 w w w w 0 w y f f f f f f w z l p p d p a m ",
"< < : : : : : <   X X X X X   X X o o o & o o o 3 3 > > > 3 3 3 3 , , > > > 3 3 o o & & & & X X     X X X X     > < # # < : @ 9 ",
"3 3 2 2 2 2 2 2 X                               > > > 3 3 3 3 3 3 3 , , , , > >                                 2 2 2 2 3 2 = i ",
"e e e e e e 3 3                                 > > 3 3 3 3 3 3 , , , , , , > >                               X 2 e 3 e u e 3 d ",
"2 2 3 3 3 3 3 2                                 > > 3 3 3 > > > > , , , , , , >                                 2 3 = = e 2 > i ",
": < > 2 3 3 3 >               X X               > 3 3 3 > > < < $ > , , , 3 , >             X X X               > 3 2 2 5 > ; 9 ",
"# # < > 2 5 5 2           . . o . . .           3 3 3 3 > < # # % % > , , 3 3 ,         X X X o o . .           2 5 2 2 4 : # 8 ",
"# # @ < > > > >         . . o o o o . .         3 3 3 > > < # # # % $ > , 3 3 5 .       X X o & o o . .         2 > 2 > < @ + 7 ",
"            X   > > > > > > 3 3 3 3 , > > > > >                             X X > > > > > 2 3 3 2 3 2 > > > > >               O ",
"                > > > > > > > > > > > > > > > >                                 > > > > > > > > > > > > > > > >               O ",
"                > > > > > > > > > > > > > > > >                                 > > > > > > > > > > > > > > > >               O ",
"                > > > > > > > > > > > > > > > >                                 > > > > > > > > > > > > > > > >               O ",
"                > > > > > > > > > > > > > > > >                                 > > > > > > > > > > > > > > > >               O ",
"                > > > > > > > > > > > > > > > >                                 > > > > > > > > > > > > > > > >               O ",
"                > > > > > > > > > > > > > > > >                                 > > > > > > > > > > > > > > > >               O ",
"                > > > > > > > > > > > > > > > >                                 > > > > > > > > > > > > > > > >               O ",
"> > > > > > > >                                                                                                 > 5 > > 5 > > b ",
"5 5 5 5 5 5 5 5                                                                                                 > 5 > > 5 > > b ",
"> > > > > > > >                                                                                                 > 5 > > 5 > > b ",
"> > > > > > > >                                                                                                 > 5 > > 5 > > b ",
"> > > > > > > >                                                                                                 > 5 > > 5 > > b ",
"> > > > > > > >                                                                                                 > > > > 5 > > 5 ",
"> > > > > > > >                                                                                                 > 5 > > 5 > > b ",
"b b b b b b b b O O O O O O O O O O O O O O O O O O O O O O O O O O O O O O O O O O O O O O O O O O O O O O O O b b b 5 b b 5 n "
};
